<?xml version="1.0" encoding="UTF-8"?><svg id="_レイヤー_2" xmlns="http://www.w3.org/2000/svg" width="160" height="160" viewBox="0 0 160 160"><defs><style>.cls-1{fill:#66add8;}.cls-1,.cls-2{stroke-width:0px;}.cls-2{fill:#005a91;}</style></defs><g id="_コンテンツ"><circle class="cls-2" cx="80" cy="80" r="80"/><path class="cls-1" d="M75.04,5.16s-.02,0-.03,0c-.43.03-.86.06-1.29.1,0,0-.01,0-.02,0,0,0,0,0,0,0,0,0-.02,0-.03,0,0,0,0,0,0,0-.22.02-.43.04-.65.06-.27.03-.48.27-.45.54.02.26.24.45.5.45.02,0,.03,0,.05,0,.65-.06,1.31-.11,1.97-.16.28-.02.48-.26.47-.53-.02-.26-.24-.47-.5-.47h0ZM70.09,5.65s-.04,0-.07,0t0,0s-.02,0-.02,0h0s-.01,0-.02,0t0,0s-.01,0-.02,0c0,0,0,0-.01,0h-.02s0,0-.01,0c0,0-.01,0-.02,0,0,0-.01,0-.02,0s0,0-.01,0c0,0,0,0-.02,0,0,0,0,0-.01,0,0,0-.01,0-.02,0,0,0,0,0,0,0,0,0-.02,0-.02,0,0,0,0,0,0,0,0,0-.02,0-.03,0,0,0,0,0,0,0-.39.05-.78.11-1.16.17h0s-.02,0-.03,0c0,0,0,0,0,0,0,0-.01,0-.02,0h0s-.01,0-.02,0c0,0,0,0-.01,0,0,0-.01,0-.02,0,0,0-.01,0-.02,0,0,0,0,0-.01,0,0,0-.01,0-.02,0,0,0,0,0-.01,0,0,0-.01,0-.02,0,0,0,0,0,0,0,0,0-.02,0-.02,0,0,0,0,0,0,0,0,0-.02,0-.03,0h0c-.09.01-.18.03-.28.04-.27.04-.46.3-.41.57.04.25.25.42.49.42.03,0,.05,0,.08,0,.65-.1,1.3-.2,1.95-.29.27-.04.47-.29.43-.56-.03-.25-.25-.43-.49-.43h0ZM65.2,6.47s-.06,0-.1,0c-.1.02-.2.04-.3.06,0,0,0,0,0,0,0,0-.02,0-.02,0h0s-.01,0-.02,0c0,0,0,0-.01,0,0,0-.01,0-.02,0,0,0-.01,0-.01,0,0,0,0,0-.01,0,0,0-.01,0-.02,0,0,0,0,0-.01,0h-.02s0,0,0,0c0,0-.02,0-.02,0,0,0,0,0,0,0,0,0-.02,0-.03,0h0c-.48.1-.96.21-1.43.31-.27.06-.44.33-.38.6.05.23.26.39.49.39.04,0,.07,0,.11-.01.64-.15,1.28-.29,1.93-.42.27-.05.45-.32.39-.59-.05-.24-.26-.4-.49-.4h0ZM60.36,7.61s-.09,0-.13.02c0,0,0,0-.01,0,0,0,0,0,0,0,0,0-.01,0-.02,0s0,0-.01,0h-.01s-.01,0-.02,0c0,0,0,0,0,0,0,0-.02,0-.02,0,0,0,0,0,0,0-.28.08-.56.16-.84.24,0,0,0,0,0,0,0,0-.01,0-.02,0,0,0,0,0-.01,0,0,0-.01,0-.02,0,0,0,0,0-.01,0h-.02s-.01,0-.01,0h-.01s-.01,0-.02,0c0,0,0,0-.01,0,0,0-.01,0-.02,0,0,0,0,0-.01,0,0,0-.01,0-.02,0,0,0,0,0,0,0,0,0-.01,0-.02,0,0,0,0,0,0,0,0,0-.02,0-.02,0,0,0,0,0,0,0-.24.07-.48.14-.71.21-.26.08-.41.36-.33.62.07.22.26.36.48.36.05,0,.1,0,.14-.02.63-.19,1.26-.37,1.9-.54.27-.07.42-.35.35-.61-.06-.22-.26-.37-.48-.37h0ZM55.62,9.08c-.05,0-.11,0-.16.03-.05.02-.09.03-.13.05,0,0,0,0,0,0,0,0-.01,0-.02,0h-.01s0,0-.01,0h-.02s0,0-.01,0c0,0-.01,0-.02,0,0,0,0,0,0,0-.49.17-.98.35-1.47.53,0,0,0,0-.01,0,0,0-.01,0-.02,0,0,0-.01,0-.02,0,0,0,0,0,0,0,0,0-.01,0-.02,0,0,0,0,0,0,0-.03.01-.07.03-.1.04-.26.1-.39.39-.29.64.08.2.27.32.47.32.06,0,.12-.01.18-.03.61-.23,1.23-.45,1.86-.67.26-.09.4-.38.31-.64-.07-.21-.27-.34-.47-.34h0ZM50.98,10.86c-.06,0-.13.01-.19.04-.18.08-.36.15-.54.23,0,0,0,0,0,0,0,0-.02,0-.02.01,0,0,0,0,0,0,0,0-.01,0-.02,0,0,0,0,0,0,0,0,0-.01,0-.02,0,0,0,0,0,0,0,0,0-.01,0-.02,0,0,0,0,0-.01,0,0,0,0,0-.01,0,0,0-.01,0-.02,0,0,0,0,0,0,0-.38.17-.76.34-1.14.51h0c-.25.11-.36.41-.25.66.08.18.27.29.46.29.07,0,.14-.01.21-.05.6-.27,1.2-.54,1.81-.79.25-.11.37-.4.27-.66-.08-.19-.27-.31-.46-.31h0ZM46.48,12.95c-.07,0-.15.02-.22.05-.1.05-.2.1-.3.15,0,0,0,0,0,0,0,0-.01,0-.02.01,0,0,0,0,0,0,0,0-.01,0-.02,0,0,0,0,0,0,0,0,0-.01,0-.02,0,0,0,0,0-.01,0,0,0,0,0-.01,0,0,0-.01,0-.02,0,0,0,0,0-.01,0,0,0-.01,0-.02.01,0,0,0,0,0,0-.41.21-.81.42-1.22.64,0,0,0,0,0,0,0,0-.01,0-.02.01,0,0,0,0,0,0,0,0-.01,0-.02.01,0,0,0,0,0,0,0,0-.01,0-.02,0,0,0,0,0,0,0,0,0-.01,0-.02,0,0,0,0,0,0,0-.24.13-.33.43-.2.68.09.17.26.26.44.26.08,0,.16-.02.24-.06.58-.31,1.16-.62,1.75-.91.25-.12.35-.43.22-.67-.09-.17-.26-.27-.45-.27h0ZM42.12,15.33c-.09,0-.17.02-.25.07-.46.27-.91.55-1.36.83,0,0,0,0,0,0,0,0-.02,0-.02.01,0,0,0,0-.01,0,0,0,0,0-.01,0,0,0,0,0-.01,0h-.01s-.01.01-.02.02c0,0,0,0,0,0,0,0-.01,0-.02.01,0,0,0,0,0,0,0,0-.01,0-.02.01,0,0,0,0,0,0-.07.04-.14.09-.2.13-.23.15-.3.46-.16.69.09.15.26.23.42.23.09,0,.18-.02.27-.08.56-.35,1.12-.69,1.69-1.03.24-.14.32-.45.18-.68-.09-.16-.26-.25-.43-.25h0ZM37.94,18c-.1,0-.2.03-.28.09h0s0,0-.01.01c0,0,0,0-.01,0,0,0,0,0-.01,0-.03.02-.06.04-.08.06,0,0,0,0,0,0,0,0-.01,0-.02.01,0,0,0,0,0,0,0,0-.01,0-.02.01,0,0,0,0,0,0-.49.34-.98.69-1.47,1.04-.22.16-.27.47-.11.7.1.13.25.21.41.21.1,0,.2-.03.29-.1.53-.39,1.07-.77,1.61-1.14.23-.16.29-.47.13-.7-.1-.14-.25-.22-.41-.22h0ZM33.93,20.94c-.11,0-.22.04-.31.11-.07.06-.15.12-.22.17,0,0,0,0,0,0h-.01s0,.02-.01.02c0,0,0,0,0,0,0,0,0,0-.02.01,0,0,0,0,0,0,0,0-.01,0-.02.01,0,0,0,0,0,0-.27.21-.54.43-.8.65h0s0,.01-.01.02c0,0,0,0,0,0,0,0,0,0-.01,0,0,0,0,0-.01,0,0,0,0,0-.01,0,0,0,0,0-.01.01,0,0,0,0,0,0,0,0-.01,0-.02.01,0,0,0,0,0,0-.11.09-.22.18-.34.28-.21.18-.24.49-.06.7.1.12.24.18.38.18.11,0,.23-.04.32-.12.51-.42,1.02-.83,1.53-1.24.22-.17.25-.49.08-.7-.1-.13-.25-.19-.39-.19h0ZM30.14,24.15c-.12,0-.24.04-.33.13-.37.33-.74.67-1.1,1.01,0,0,0,0,0,0,0,0,0,0-.01.01,0,0,0,0,0,0,0,0,0,0,0,0,0,0,0,0-.01.01,0,0,0,0,0,0,0,0-.01.01-.02.02,0,0,0,0,0,0,0,0-.01.01-.02.02h0c-.09.09-.18.17-.27.26-.2.19-.21.51-.02.71.1.1.23.16.36.16.12,0,.25-.05.34-.14.48-.45.96-.9,1.45-1.34.21-.18.22-.5.04-.71-.1-.11-.23-.17-.37-.17h0ZM26.56,27.59c-.13,0-.26.05-.36.15-.47.48-.93.97-1.38,1.46-.19.2-.17.52.03.7.1.09.22.13.34.13.14,0,.27-.05.37-.16.45-.48.9-.96,1.36-1.43.19-.2.19-.51-.01-.71-.1-.09-.22-.14-.35-.14h0ZM23.22,31.26c-.14,0-.28.06-.38.17-.43.51-.86,1.02-1.28,1.54-.17.21-.14.53.08.7.09.07.2.11.31.11.15,0,.29-.06.39-.19.41-.51.83-1.02,1.26-1.52.18-.21.15-.53-.06-.7-.09-.08-.21-.12-.32-.12h0ZM20.13,35.15c-.15,0-.3.07-.4.2-.4.54-.79,1.08-1.17,1.62-.16.23-.1.54.12.7.09.06.19.09.29.09.16,0,.31-.07.41-.21.38-.54.76-1.07,1.15-1.6.16-.22.12-.53-.1-.7-.09-.07-.19-.1-.3-.1h0ZM17.31,39.24c-.16,0-.33.08-.42.23-.36.56-.71,1.13-1.06,1.7-.14.24-.07.54.17.69.08.05.17.07.26.07.17,0,.33-.09.43-.24.34-.56.69-1.12,1.05-1.67.15-.23.08-.54-.15-.69-.08-.05-.18-.08-.27-.08h0ZM14.76,43.5c-.18,0-.35.09-.44.26-.16.29-.32.58-.48.88h0s0,.02-.01.03h0s0,.02-.01.03h0c-.03.06-.06.11-.09.17h0s0,.02-.01.03c0,0,0,0,0,0,0,0,0,.02-.01.02h0s0,.02-.01.03h0s0,.02-.01.03c0,0,0,0,0,0v.03s-.01,0-.01,0c-.02.05-.05.09-.07.14,0,0,0,0,0,0,0,0,0,.02-.01.02,0,0,0,0,0,0,0,0,0,.01-.01.02,0,0,0,0,0,0,0,0,0,.01-.01.02,0,0,0,0,0,0,0,0,0,.01-.01.02,0,0,0,0,0,0v.02s-.01,0-.01,0c0,0,0,.01-.01.02,0,0,0,0,0,0,0,.02-.02.04-.03.05,0,0,0,0,0,0,0,0,0,.01-.01.02,0,0,0,0,0,.01,0,0,0,.01,0,.02,0,0,0,0,0,.01,0,0,0,0,0,.01,0,0,0,0,0,.01,0,0,0,0,0,.01,0,0,0,0,0,.01,0,0,0,0,0,.01,0,0,0,.01,0,.01,0,0,0,0,0,.01,0,0,0,0,0,.01-.13.25-.03.55.21.67.07.04.15.06.23.06.18,0,.36-.1.44-.27.3-.58.61-1.16.93-1.74.13-.24.05-.55-.2-.68-.08-.04-.16-.06-.24-.06h0ZM12.5,47.92c-.19,0-.37.11-.45.28-.14.31-.29.62-.43.93,0,0,0,0,0,0,0,0,0,.02-.01.03,0,0,0,0,0,0,0,0,0,.02-.01.02h0s0,.02-.01.03c0,0,0,0,0,0-.02.05-.05.1-.07.15,0,0,0,0,0,0,0,0,0,.01,0,.02,0,0,0,0,0,0,0,0,0,.01,0,.02,0,0,0,0,0,0,0,0,0,.01,0,.02,0,0,0,0,0,.01,0,0,0,.01,0,.02,0,0,0,0,0,.01,0,0,0,.01,0,.02h0s0,.02,0,.03c0,0,0,0,0,.01,0,0,0,0,0,.01,0,0,0,.01,0,.02,0,0,0,0,0,.01,0,0,0,.02-.01.03,0,0,0,0,0,0,0,0,0,.01,0,.02,0,0,0,0,0,0,0,0,0,.01,0,.02,0,0,0,0,0,0,0,0,0,.01,0,.02,0,0,0,0,0,0,0,0,0,.01,0,.02,0,0,0,0,0,0,0,0,0,.01,0,.02,0,0,0,0,0,0v.02s-.01,0-.01,0c0,0,0,.02-.01.02,0,0,0,0,0,0v.03s-.01,0-.01,0c-.03.07-.06.13-.09.2-.11.25,0,.55.26.66.07.03.13.04.2.04.19,0,.38-.11.46-.3.26-.6.53-1.2.81-1.8.12-.25,0-.55-.24-.66-.07-.03-.14-.05-.21-.05h0ZM10.55,52.49c-.2,0-.39.12-.47.32-.2.52-.4,1.04-.59,1.57,0,0,0,0,0,0,0,0,0,.01,0,.02,0,0,0,0,0,0,0,0,0,.01,0,.02,0,0,0,0,0,0,0,0,0,.01,0,.02,0,0,0,0,0,0,0,0,0,.01,0,.02,0,0,0,0,0,.01,0,0,0,0,0,.02,0,0,0,.01,0,.02,0,0,0,0,0,.01-.02.05-.03.1-.05.15-.09.26.04.55.3.64.06.02.11.03.17.03.21,0,.4-.13.47-.33.22-.62.45-1.24.69-1.85.1-.26-.03-.55-.28-.65-.06-.02-.12-.03-.18-.03h0ZM8.9,57.17c-.21,0-.41.14-.48.35-.2.64-.39,1.28-.57,1.92-.07.27.08.54.34.62.05.01.09.02.14.02.22,0,.42-.14.48-.36.18-.63.37-1.26.57-1.89.08-.26-.06-.54-.33-.63-.05-.02-.1-.02-.15-.02h0ZM7.58,61.96c-.23,0-.43.15-.49.38-.15.63-.29,1.26-.43,1.89,0,0,0,0,0,0,0,0,0,.01,0,.02,0,0,0,.01,0,.02,0,0,0,0,0,.01,0,0,0,0,0,0-.06.27.12.53.39.59.04,0,.07.01.1.01.23,0,.44-.16.49-.4.14-.64.28-1.29.44-1.92.06-.27-.1-.54-.37-.6-.04,0-.08-.01-.12-.01h0ZM6.57,66.82c-.24,0-.45.17-.49.42h0s0,.02,0,.02c0,0,0,0,0,.01,0,0,0,.01,0,.02,0,0,0,.01,0,.02,0,0,0,0,0,0-.11.63-.21,1.27-.3,1.91-.04.27.15.52.42.56.02,0,.05,0,.07,0,.24,0,.46-.18.49-.43.09-.65.2-1.3.31-1.95.05-.27-.14-.53-.41-.58-.03,0-.06,0-.09,0h0ZM5.9,71.74c-.25,0-.47.19-.5.45-.01.11-.02.21-.03.32,0,0,0,0,0,0,0,0,0,.02,0,.03,0,0,0,0,0,0,0,0,0,.01,0,.02v.02s0,0,0,.01c0,0,0,.02,0,.02,0,0,0,0,0,0-.05.52-.1,1.04-.14,1.56,0,0,0,0,0,0-.02.28.18.52.46.54.01,0,.03,0,.04,0,.26,0,.48-.2.5-.46.05-.66.11-1.31.18-1.97.03-.27-.17-.52-.45-.55-.02,0-.03,0-.05,0h0ZM5.55,76.69c-.27,0-.49.21-.5.48,0,.03,0,.05,0,.08,0,0,0,0,0,0,0,.01,0,.02,0,.03h0s0,.02,0,.03c0,0,0,0,0,0,0,0,0,.01,0,.02,0,0,0,0,0,.01,0,0,0,.01,0,.02,0,0,0,0,0,.01,0,0,0,.01,0,.02,0,0,0,.01,0,.02,0,0,0,0,0,.01,0,0,0,.01,0,.02,0,0,0,0,0,0,0,0,0,.02,0,.03h0c0,.29-.02.59-.02.88h0s0,.02,0,.03c0,0,0,0,0,0,0,.01,0,.02,0,.03h0s0,.06,0,.09c0,0,0,0,0,.01,0,0,0,.01,0,.02,0,0,0,.01,0,.02,0,0,0,0,0,.01,0,0,0,.02,0,.02h0s0,.02,0,.03h0s0,.02,0,.03c0,0,0,0,0,0,0,.17,0,.34,0,.51,0,.28.22.5.49.5h0c.27,0,.5-.22.5-.49,0-.66.02-1.32.05-1.97.01-.28-.21-.51-.48-.52,0,0-.01,0-.02,0h0ZM5.53,81.66s0,0-.01,0c-.28,0-.49.24-.49.51,0,.2.01.4.02.6h0s0,.02,0,.03c0,0,0,0,0,0,0,.01,0,.02,0,.03,0,0,0,0,0,0,0,0,0,.01,0,.02,0,0,0,.01,0,.02,0,0,0,0,0,.01,0,0,0,.01,0,.02,0,0,0,0,0,.01.02.42.04.83.06,1.25.01.27.24.47.5.47,0,0,.02,0,.03,0,.28-.02.49-.25.47-.53-.04-.66-.06-1.31-.08-1.97,0-.27-.23-.49-.5-.49h0ZM5.84,86.62s-.03,0-.05,0c-.27.03-.48.27-.45.54.06.67.14,1.33.22,1.99.03.25.25.44.5.44.02,0,.04,0,.06,0,.27-.03.47-.28.44-.56-.08-.65-.15-1.31-.21-1.96-.02-.26-.24-.45-.5-.45h0ZM6.47,91.55s-.05,0-.08,0c-.27.04-.46.3-.41.57.06.38.13.77.2,1.15h0c.01.08.03.15.04.23,0,0,0,0,0,0,0,0,0,.02,0,.02,0,0,0,0,0,0,0,0,0,.01,0,.02,0,0,0,0,0,0,0,0,0,.01,0,.02,0,0,0,0,0,.01,0,0,0,.01,0,.02,0,0,0,0,0,.01,0,0,0,.01,0,.02,0,0,0,0,0,.01,0,0,0,0,0,.01,0,0,0,.01,0,.02,0,0,0,0,0,.01,0,0,0,.01,0,.02,0,0,0,0,0,.01v.02s0,0,0,0c0,0,0,.01,0,.02,0,0,0,0,0,0,0,0,0,.02,0,.03h0c.02.09.03.19.05.28.05.24.26.41.49.41.03,0,.06,0,.09,0,.27-.05.45-.31.4-.58-.12-.64-.24-1.29-.34-1.94-.04-.25-.25-.42-.49-.42h0ZM7.43,96.42s-.08,0-.11.01c-.27.06-.44.33-.37.6.07.29.14.58.21.87,0,0,0,0,0,0,0,0,0,.02,0,.03,0,0,0,0,0,0,0,0,0,.02,0,.03,0,0,0,0,0,0,0,0,0,.02,0,.02,0,0,0,0,0,0,0,0,0,.02,0,.02,0,0,0,0,0,0,0,0,0,.01,0,.02,0,0,0,0,0,0,0,0,0,.02,0,.02,0,0,0,0,0,0,0,0,0,.01,0,.02,0,0,0,0,0,0,0,.01,0,.03,0,.04,0,0,0,0,0,.01,0,0,0,0,0,.01,0,0,0,.01,0,.02,0,0,0,0,0,0,0,0,0,.01,0,.02,0,0,0,0,0,0,0,0,0,.02,0,.02,0,0,0,0,0,0,0,0,0,.02,0,.02,0,0,0,0,0,0,0,0,0,.02,0,.03h0s0,.02,0,.03h0c.05.21.11.42.16.64.06.22.26.37.48.37.04,0,.08,0,.13-.02.27-.07.43-.34.36-.61-.17-.64-.32-1.27-.47-1.92-.05-.23-.26-.39-.49-.39h0ZM8.71,101.21s-.1,0-.15.02c-.26.08-.41.36-.33.62,0,0,0,0,0,0,0,0,0,.02,0,.02,0,0,0,0,0,0,0,0,0,.02,0,.03,0,0,0,.01,0,.01,0,0,0,0,0,.01,0,0,0,0,0,.02,0,0,0,0,0,.01,0,0,0,.01,0,.02,0,0,0,0,0,.01,0,0,0,.01,0,.02,0,0,0,0,0,.01,0,0,0,.01,0,.02,0,0,0,0,0,0,0,0,0,.01,0,.02,0,0,0,0,0,0,0,0,0,.01,0,.02,0,0,0,0,0,0,0,0,0,.02,0,.02,0,0,0,0,0,0,0,0,0,.02,0,.02,0,0,0,0,0,0,.13.42.26.84.4,1.26,0,0,0,0,0,0,0,0,0,.01,0,.02,0,0,0,0,0,0,0,0,0,.01,0,.02,0,0,0,0,0,0,0,0,0,.02,0,.02,0,0,0,0,0,0,0,0,0,.01,0,.02,0,0,0,0,0,.01,0,0,0,0,0,.02,0,0,0,.01,0,.02,0,0,0,0,0,.01,0,0,0,.02,0,.03h0s.03.1.05.15c.07.21.26.34.47.34.05,0,.11,0,.16-.03.26-.09.4-.37.32-.63-.21-.62-.41-1.25-.6-1.88-.07-.22-.26-.35-.48-.35h0ZM10.32,105.91c-.06,0-.12.01-.18.03-.26.1-.39.39-.29.64.06.16.12.31.18.47,0,0,0,0,0,0v.02s.01,0,.01,0c0,0,0,.01,0,.02,0,0,0,0,0,0,0,0,0,.01,0,.02,0,0,0,0,0,0,0,0,0,.01,0,.02,0,0,0,.01,0,.01,0,0,0,0,0,.01,0,0,0,0,0,.01,0,0,0,0,0,0,.14.36.28.72.43,1.08,0,0,0,0,0,0,0,0,0,.01,0,.02,0,0,0,0,0,0,0,0,0,.01,0,.02,0,0,0,0,0,0,0,0,0,.01,0,.02,0,0,0,0,0,.01,0,0,0,.01,0,.02,0,0,0,0,0,.01,0,0,0,0,0,.01,0,0,0,.01,0,.02,0,0,0,0,0,0,.08.19.27.31.46.31.06,0,.13-.01.19-.04.26-.1.38-.4.27-.65-.25-.61-.49-1.22-.72-1.84-.08-.2-.27-.32-.47-.32h0ZM12.23,110.49c-.07,0-.14.01-.21.05-.25.12-.36.41-.25.66.18.4.37.79.56,1.19,0,0,0,0,0,0,0,0,0,.01.01.02,0,0,0,0,0,.01,0,0,0,.01,0,.01,0,0,0,.01,0,.01,0,0,0,0,0,.01,0,0,0,.01,0,.02,0,0,0,0,0,0,0,0,0,.01,0,.02,0,0,0,0,0,0,0,0,0,.01.01.02,0,0,0,0,0,0,.08.16.15.31.23.47.09.18.26.28.45.28.07,0,.15-.02.22-.05.25-.12.35-.42.23-.67-.29-.59-.57-1.18-.85-1.78-.08-.18-.27-.29-.46-.29h0ZM14.45,114.94c-.08,0-.16.02-.24.06-.24.13-.33.43-.2.68.11.2.22.4.33.59,0,0,0,0,0,0,0,0,0,.01.01.02,0,0,0,0,0,0,0,0,0,.01,0,.02,0,0,0,0,0,0,0,0,0,.01,0,.02,0,0,0,0,0,.01,0,0,0,0,0,.01,0,0,0,0,0,.01,0,0,0,0,0,.01,0,0,0,.01,0,.02,0,0,0,0,0,.01,0,0,0,.01.01.02,0,0,0,0,0,0,.02.03.03.05.05.08h0s0,.02.01.03c0,0,0,0,0,0,0,0,0,.02.01.02,0,0,0,0,0,0,0,0,0,.02.01.02h0s0,.02.01.03c0,0,0,0,0,0,0,0,0,.02.01.03h0c.14.25.28.49.42.73h0s.01.02.02.03h0c.09.16.26.25.43.25.08,0,.17-.02.25-.07.24-.14.32-.44.18-.68-.33-.57-.65-1.14-.96-1.72-.09-.17-.26-.26-.44-.26h0ZM16.96,119.22c-.09,0-.18.02-.27.08-.23.15-.3.45-.16.69.13.2.25.4.38.6,0,0,0,0,0,0,0,0,0,0,0,.01,0,0,0,0,0,.01,0,0,0,0,0,.01,0,0,0,0,0,.01,0,0,0,0,0,0,0,0,0,.01.01.02,0,0,0,0,0,0v.02s.01,0,.02,0c0,0,0,.02.01.02,0,0,0,0,0,0,.19.29.37.57.57.86h0s0,.02.01.02c0,0,0,0,0,0,0,0,0,0,0,.01,0,0,0,0,0,.01,0,0,0,0,0,.01,0,0,0,0,0,0,.1.14.25.22.42.22.1,0,.19-.03.28-.08.23-.15.29-.46.14-.69-.37-.55-.72-1.1-1.08-1.65-.1-.15-.26-.23-.42-.23h0ZM19.75,123.33c-.1,0-.21.03-.29.1-.22.16-.27.47-.11.7.08.12.17.23.25.34,0,0,0,0,0,0,0,0,0,.01.01.02,0,0,0,0,0,0,0,0,0,0,0,.01,0,0,0,0,0,.01,0,0,0,0,0,.01,0,0,0,.01.01.02h0c.29.4.59.79.88,1.17.1.13.25.19.4.19.11,0,.21-.03.3-.1.22-.17.26-.48.09-.7-.4-.52-.8-1.05-1.18-1.58-.1-.13-.25-.21-.4-.21h0ZM22.81,127.24c-.11,0-.23.04-.32.12-.21.18-.24.49-.06.7.05.06.1.12.15.18h0s.01.01.02.02c0,0,0,0,0,0,0,0,0,.01.01.02,0,0,0,0,0,0,0,0,0,0,.01.01,0,0,0,0,.01.01,0,0,0,0,0,0,0,0,.01.01.02.02h0c.28.34.57.67.85,1h0s.01.01.02.02c0,0,0,0,0,0,0,0,0,0,.01.01,0,0,0,0,0,.01,0,0,0,0,0,0,0,0,0,0,.01.01,0,0,0,0,0,0,.05.05.09.11.14.16.1.11.24.17.37.17.12,0,.24-.04.33-.12.21-.18.23-.5.04-.71-.43-.49-.86-.99-1.29-1.5-.1-.12-.24-.18-.38-.18h0ZM26.12,130.95c-.12,0-.25.05-.35.14-.2.19-.21.51-.02.71h0c.39.41.78.81,1.18,1.21,0,0,0,0,0,0,0,0,.01.01.02.02,0,0,0,0,0,0,0,0,0,0,.01.01,0,0,0,0,.01.01,0,0,0,0,0,0,0,0,0,0,.01.01,0,0,0,0,0,0,.05.05.1.1.15.15.1.1.22.14.35.14s.26-.05.35-.15c.19-.2.19-.51,0-.71-.47-.46-.93-.93-1.38-1.41-.1-.1-.23-.15-.36-.15h0ZM29.66,134.42c-.14,0-.27.05-.37.16-.19.2-.17.52.03.71.09.08.18.17.28.25h0s.02.01.02.02h0s.09.08.14.13h0s.01.01.02.02h0s.01.02.02.02c0,0,0,0,0,0,0,0,.01,0,.02.01,0,0,0,0,0,0,0,0,.01,0,.02.01,0,0,0,0,0,0,0,0,.01,0,.02.01,0,0,0,0,0,0,0,0,.01.01.02.02,0,0,0,0,0,0,.01.01.03.03.04.04,0,0,0,0,0,0,0,0,0,0,.01.01,0,0,0,0,.01,0,0,0,0,0,.01.01,0,0,0,0,.01,0,0,0,0,0,.01,0,0,0,0,0,.01.01,0,0,0,0,0,0,0,0,0,0,.01.01,0,0,0,0,0,0,0,0,0,0,.01.01,0,0,0,0,0,0,0,0,0,0,.01.01,0,0,0,0,0,0,.02.02.05.05.08.07,0,0,0,0,0,0,0,0,.01,0,.02.01,0,0,0,0,0,0,0,0,.01,0,.02.01,0,0,0,0,0,0,0,0,0,0,.01.01,0,0,0,0,0,0,0,0,.01,0,.02.01,0,0,0,0,0,0,0,0,.01,0,.02.01,0,0,0,0,0,0,0,0,.01.01.02.02,0,0,0,0,0,0,.03.02.05.05.08.07h0s.01.01.02.02c0,0,0,0,0,0,0,0,.01.01.02.01,0,0,0,0,0,0,0,0,.01,0,.02.01,0,0,0,0,0,0,0,0,.01,0,.02.01,0,0,0,0,0,0,0,0,.01,0,.02.01h0s.01.01.02.02c0,0,0,0,0,0,0,0,.01,0,.02.01,0,0,0,0,0,0,0,0,.02.02.03.02,0,0,0,0,.01.01,0,0,0,0,.01,0h.01s0,.02.01.02c0,0,0,0,.01.01,0,0,0,0,.01,0,0,0,0,0,.01.01,0,0,0,0,0,0h.01s0,.02,0,.02c0,0,.01,0,.02.01,0,0,0,0,0,0,0,0,.01.01.02.02h0s.06.06.09.08c.09.08.21.12.33.12.14,0,.28-.06.38-.17.18-.21.16-.52-.05-.71-.5-.43-.99-.87-1.47-1.31-.1-.09-.22-.13-.34-.13h0ZM33.43,137.66c-.15,0-.29.06-.39.19-.17.22-.14.53.08.7.26.21.52.41.78.62,0,0,0,0,0,0l.02.02h0s.01.01.02.02c0,0,0,0,0,0l.02.02s0,0,0,0c0,0,.01.01.02.02h0s.05.04.07.06c0,0,0,0,0,0,0,0,.01,0,.02.01,0,0,0,0,.01,0,0,0,0,0,.01,0,0,0,0,0,.01,0,0,0,0,0,.01,0,0,0,0,0,.01,0,0,0,0,0,.01,0,0,0,.01,0,.01.01,0,0,0,0,0,0,0,0,.01,0,.02.01,0,0,0,0,0,0,0,0,.01,0,.02.01,0,0,0,0,0,0,.15.12.31.24.46.36.09.07.2.1.3.1.15,0,.3-.07.4-.2.17-.22.12-.53-.1-.7-.52-.4-1.04-.8-1.56-1.21-.09-.07-.2-.11-.31-.11h0ZM37.41,140.63c-.16,0-.31.07-.41.21-.16.23-.1.54.12.7,0,0,0,0,0,0h.02s0,.02,0,.02c0,0,.01.01.02.02h0c.53.37,1.06.73,1.6,1.09.08.06.18.08.27.08.16,0,.32-.08.42-.22.15-.23.09-.54-.14-.69-.55-.36-1.09-.73-1.63-1.11-.09-.06-.19-.09-.29-.09h0ZM41.57,143.34c-.17,0-.33.09-.43.24-.14.24-.07.54.17.69,0,0,0,0,0,0,0,0,0,0,.01,0,0,0,0,0,.01,0,0,0,0,0,.01,0,0,0,0,0,.01,0,0,0,0,0,.01,0,0,0,0,0,.01,0,0,0,.01,0,.02,0,0,0,0,0,.01,0,0,0,.01,0,.02.01,0,0,0,0,0,0,0,0,.02.01.03.02,0,0,0,0,0,0,0,0,.01,0,.02.01,0,0,0,0,0,0h.02s0,.01.01.02c0,0,0,0,.01,0,0,0,0,0,.01,0,0,0,0,0,.01,0,0,0,0,0,.01,0,0,0,0,0,.01,0,0,0,0,0,.01,0,0,0,0,0,.01,0,0,0,0,0,.01,0,0,0,0,0,.01,0,0,0,0,0,.01,0,0,0,.01,0,.02,0,0,0,0,0,.01,0,0,0,.01,0,.02,0,.01,0,.02.01.03.02,0,0,0,0,0,0,0,0,.01,0,.02,0h0s0,.01.01.01c0,0,0,0,.01,0,0,0,0,0,.01,0,0,0,0,0,.01,0,0,0,.01,0,.02,0,0,0,0,0,.01,0,0,0,.01,0,.02,0,0,0,0,0,0,0,0,0,.01,0,.02,0h.01s0,.01.02.02c0,0,0,0,0,0,0,0,.01,0,.02.01,0,0,0,0,0,0,.03.02.06.04.09.05,0,0,0,0,0,0,0,0,.01,0,.02.01h0s.01.01.02.01c0,0,0,0,0,0,0,0,.01,0,.02.01,0,0,0,0,0,0,0,0,.01,0,.02.01,0,0,0,0,0,0,.3.18.6.35.91.52.08.04.16.06.24.06.17,0,.34-.09.44-.25.14-.24.05-.55-.19-.68-.57-.32-1.14-.66-1.7-1-.08-.05-.17-.07-.26-.07h0ZM45.91,145.76c-.18,0-.36.1-.44.27-.13.25-.03.55.22.67.57.3,1.15.58,1.73.86,0,0,0,0,.01,0h.02s.01.01.02.02c0,0,0,0,0,0,0,0,0,0,0,0,.07.03.14.05.22.05.19,0,.36-.1.45-.28.12-.25.02-.55-.23-.67-.59-.29-1.18-.58-1.77-.88-.07-.04-.15-.06-.23-.06h0ZM50.39,147.89c-.19,0-.38.11-.46.3-.11.25,0,.55.26.66.61.27,1.23.52,1.85.77.06.02.12.04.18.04.2,0,.39-.12.46-.31.1-.26-.02-.55-.28-.65-.61-.25-1.22-.5-1.82-.76-.06-.03-.13-.04-.2-.04h0ZM55.01,149.71c-.21,0-.4.13-.47.33-.09.26.04.55.3.64.57.2,1.14.4,1.71.59h0s.02,0,.03,0h0s.02,0,.02,0c0,0,0,0,0,0,0,0,.01,0,.02,0,0,0,0,0,.01,0,0,0,0,0,.01,0,.02,0,.05.02.07.02.05.02.1.02.15.02.21,0,.41-.13.48-.35.09-.26-.06-.54-.32-.63-.63-.2-1.25-.42-1.87-.64-.06-.02-.11-.03-.17-.03h0ZM59.74,151.21c-.22,0-.42.14-.48.36-.07.27.08.54.35.62.64.18,1.28.35,1.93.52.04.01.08.02.12.02.22,0,.43-.15.48-.38.07-.27-.09-.54-.36-.61-.64-.16-1.27-.33-1.91-.51-.05-.01-.09-.02-.14-.02h0ZM64.57,152.4c-.23,0-.44.16-.49.4-.06.27.12.54.39.59.13.03.26.06.4.08,0,0,0,0,0,0,0,0,.02,0,.02,0,0,0,0,0,0,0,0,0,.01,0,.02,0,0,0,0,0,.01,0,0,0,.01,0,.02,0,0,0,.01,0,.01,0,0,0,0,0,.01,0,0,0,.01,0,.02,0,0,0,0,0,.01,0,0,0,.01,0,.02,0h.01s.01,0,.02,0c0,0,0,0,0,0,0,0,.01,0,.02,0,0,0,0,0,0,0,0,0,.02,0,.02,0,0,0,0,0,0,0,.25.05.49.1.74.15,0,0,0,0,0,0,0,0,.02,0,.03,0,0,0,0,0,0,0,0,0,.01,0,.02,0,0,0,0,0,0,0,0,0,.01,0,.02,0,0,0,0,0,0,0,0,0,.01,0,.02,0,0,0,0,0,.01,0,0,0,.01,0,.02,0,0,0,0,0,.01,0,0,0,0,0,.02,0,0,0,.01,0,.02,0,0,0,0,0,.01,0,.12.02.24.05.37.07.03,0,.06,0,.09,0,.24,0,.45-.17.49-.41.05-.27-.13-.53-.4-.58-.65-.12-1.29-.25-1.94-.38-.03,0-.07-.01-.1-.01h0ZM69.46,153.26c-.24,0-.46.18-.49.43-.04.27.15.52.42.56.66.09,1.32.18,1.99.25.02,0,.04,0,.05,0,.25,0,.47-.19.5-.44.03-.27-.17-.52-.44-.55-.66-.08-1.31-.16-1.96-.25-.02,0-.05,0-.07,0h0ZM74.39,153.79c-.26,0-.48.2-.5.46-.02.27.19.51.46.54.66.05,1.33.09,2,.12,0,0,.02,0,.02,0,.27,0,.49-.21.5-.48.01-.28-.2-.51-.48-.52-.66-.03-1.32-.07-1.97-.12-.01,0-.03,0-.04,0h0ZM81.35,153.99s0,0,0,0c-.44,0-.89.01-1.34.01-.21,0-.43,0-.64,0,0,0,0,0,0,0-.27,0-.5.22-.5.5,0,.28.22.5.5.5.11,0,.22,0,.32,0h0s.02,0,.03,0c0,0,0,0,0,0h.01s0,0,.01,0c0,0,.01,0,.02,0,0,0,.01,0,.02,0h.01s.02,0,.02,0c0,0,0,0,0,0h.02s0,0,0,0h.03s.02,0,.03,0h0s.03,0,.05,0h.09s.02,0,.03,0h.03s0,0,0,0h.03s0,0,0,0h.03s0,0,0,0c.02,0,.04,0,.06,0h0s.04,0,.06,0h0s.06,0,.09,0h0c.23,0,.46,0,.69,0,0,0,0,0,0,0,.02,0,.04,0,.06,0,0,0,0,0,0,0,.01,0,.01,0,.02,0,0,0,0,0,0,0,.01,0,.02,0,.03,0h.01s.01,0,.02,0c0,0,0,0,.01,0,0,0,.01,0,.01,0,0,0,.02,0,.02,0,0,0,0,0,0,0,0,0,.01,0,.02,0,0,0,0,0,0,0,.01,0,.03,0,.04,0,.28,0,.5-.23.49-.51,0-.27-.23-.49-.5-.49h0ZM86.31,153.74s-.03,0-.04,0c-.65.05-1.31.1-1.97.14-.28.02-.49.25-.47.53.02.27.24.47.5.47,0,0,.02,0,.03,0,.16,0,.31-.02.46-.03,0,0,0,0,0,0,0,0,.02,0,.02,0h0s.01,0,.02,0c0,0,0,0,.01,0,0,0,0,0,.02,0,0,0,.01,0,.02,0,0,0,.01,0,.01,0,0,0,.01,0,.02,0,0,0,0,0,.01,0h.02s0,0,.01,0h.02s0,0,0,0c0,0,.02,0,.02,0,0,0,0,0,0,0,0,0,.02,0,.03,0h0s.02,0,.03,0h0c.42-.03.83-.06,1.24-.09.28-.02.48-.26.46-.54-.02-.26-.24-.46-.5-.46h0ZM91.24,153.16s-.05,0-.08,0c-.65.1-1.3.19-1.96.27-.27.03-.47.28-.43.56.03.25.25.44.5.44.02,0,.04,0,.06,0,.67-.08,1.33-.17,1.99-.27.27-.04.46-.3.42-.57-.04-.25-.25-.43-.49-.43h0ZM96.12,152.25s-.07,0-.11.01c-.64.14-1.28.27-1.93.4-.27.05-.45.31-.4.59.05.24.26.41.49.41.03,0,.06,0,.09,0,.05-.01.11-.02.16-.03,0,0,0,0,0,0,0,0,.02,0,.03,0t0,0s.02,0,.03,0c0,0,.01,0,.02,0,0,0,.01,0,.02,0,0,0,.02,0,.02,0h0s.02,0,.03,0h0s.02,0,.03,0h0s.02,0,.03,0h0c.28-.05.55-.11.83-.17h0s.02,0,.03,0c0,0,0,0,0,0,0,0,.02,0,.02,0,0,0,0,0,0,0,0,0,.01,0,.02,0,0,0,0,0,.01,0h.02s0,0,.01,0c0,0,.01,0,.02,0,0,0,0,0,.01,0s.01,0,.01,0,.01,0,.02,0c0,0,0,0,.01,0,0,0,.01,0,.02,0,0,0,0,0,0,0,0,0,.01,0,.02,0,0,0,0,0,0,0,.17-.04.34-.07.51-.11.27-.06.44-.33.38-.6-.05-.23-.26-.39-.49-.39h0ZM100.93,151.02s-.09,0-.14.02c-.63.18-1.26.36-1.9.53-.27.07-.43.34-.36.61.06.22.26.37.48.37.04,0,.08,0,.13-.02.28-.07.56-.15.85-.23h0s.02,0,.03,0h0s.02,0,.03,0c0,0,0,0,0,0,.07-.02.14-.04.21-.06h0s.02,0,.03,0c0,0,0,0,0,0h.02s0,0,0,0c0,0,.01,0,.02,0,0,0,0,0,.01,0,0,0,.01,0,.02,0,0,0,0,0,.01,0,0,0,.01,0,.02,0,0,0,0,0,.01,0h.02s0,0,.01,0c0,0,0,0,.01,0,0,0,0,0,.02,0,0,0,0,0,.01,0,0,0,0,0,.02,0,0,0,0,0,0,0,.19-.05.37-.11.56-.16.26-.08.41-.36.34-.62-.06-.22-.26-.36-.48-.36h0ZM105.65,149.47c-.06,0-.12,0-.17.03-.62.23-1.24.44-1.86.65-.26.09-.4.37-.31.63.07.21.27.34.47.34.05,0,.11,0,.16-.03.63-.21,1.26-.43,1.89-.66.26-.1.39-.38.3-.64-.07-.2-.27-.33-.47-.33h0ZM110.25,147.6c-.07,0-.14.01-.2.04-.6.27-1.2.53-1.81.78-.26.11-.38.4-.27.65.08.19.27.31.46.31.06,0,.13-.01.19-.04.08-.03.15-.06.23-.1h0s.08-.03.11-.05c0,0,0,0,0,0,0,0,.02,0,.02,0,0,0,0,0,0,0,0,0,.01,0,.02,0,0,0,0,0,.01,0,0,0,.01,0,.02,0,0,0,0,0,.01,0h.01s.01-.01.01-.01,0,0,.01,0c0,0,0,0,.01,0,0,0,0,0,.01,0,0,0,0,0,.01,0,0,0,0,0,.01,0,0,0,0,0,.02,0,0,0,0,0,.01,0,0,0,0,0,.02,0,0,0,0,0,.01,0,.02,0,.04-.02.06-.03,0,0,0,0,0,0,0,0,.01,0,.02,0,0,0,0,0,0,0,0,0,.01,0,.02,0,0,0,0,0,0,0,0,0,.01,0,.02,0,0,0,0,0,0,0,0,0,.01,0,.02,0,0,0,0,0,0,0,0,0,.01,0,.02,0,0,0,0,0,0,0,0,0,.01,0,.02,0,0,0,0,0,0,0,0,0,.01,0,.02,0,0,0,0,0,0,0,0,0,.01,0,.02,0,0,0,0,0,0,0,.03-.01.05-.02.07-.03,0,0,0,0,0,0,0,0,.01,0,.02,0,0,0,0,0,0,0,0,0,0,0,.02,0,0,0,0,0,.01,0,0,0,.01,0,.02,0,0,0,0,0,.01,0,0,0,.01,0,.02,0h.01s.01,0,.01-.01c0,0,0,0,.01,0s0,0,.01,0c0,0,0,0,.01,0,0,0,0,0,.01,0h.01s0,0,.01-.01c0,0,.01,0,.02,0,0,0,0,0,0,0,.03-.01.06-.02.08-.04h0s.02,0,.02-.01c0,0,0,0,0,0h.02s0-.01,0-.01c0,0,.02,0,.02-.01h0s.02,0,.02-.01h0c.15-.07.3-.13.46-.2.25-.11.37-.41.25-.66-.08-.19-.27-.3-.46-.3h0ZM114.71,145.43c-.08,0-.16.02-.23.06-.58.31-1.17.61-1.76.9-.25.12-.35.42-.23.67.09.18.26.28.45.28.07,0,.15-.02.22-.05.16-.08.32-.16.48-.24h0s.02,0,.02-.01c0,0,0,0,0,0,0,0,.01,0,.02-.01h0s.01-.01.02-.01c0,0,0,0,.01,0,0,0,.01,0,.02,0,0,0,0,0,.01,0,0,0,0,0,.01,0,0,0,0,0,.01,0,0,0,0,0,.01,0,0,0,0,0,.02,0,0,0,0,0,0,0,.03-.02.06-.03.1-.05h0s.01,0,.02-.01c0,0,0,0,0,0,0,0,.01,0,.02-.01,0,0,0,0,0,0,0,0,.01,0,.02-.01,0,0,0,0,0,0,0,0,.01,0,.02-.01h0s.02,0,.02-.01h0c.17-.09.34-.17.5-.26,0,0,0,0,0,0,0,0,.02,0,.02-.01,0,0,0,0,0,0,0,0,.02,0,.02-.01,0,0,0,0,0,0,.05-.03.1-.05.14-.08,0,0,0,0,0,0,0,0,0,0,.02,0,0,0,0,0,.01,0,0,0,0,0,.01,0,0,0,0,0,.01,0,0,0,0,0,.01,0,0,0,.01,0,.02,0,0,0,0,0,.01,0,0,0,.01,0,.02-.01,0,0,0,0,0,0h.02s0-.01,0-.01c.02,0,.04-.02.05-.03.24-.13.34-.43.21-.68-.09-.17-.26-.27-.44-.27h0ZM119.03,142.97c-.09,0-.18.02-.26.07-.56.34-1.12.68-1.69,1.01-.24.14-.32.44-.18.68.09.16.26.25.43.25.08,0,.17-.02.25-.07.06-.04.13-.07.19-.11h0s.02,0,.02-.01c0,0,0,0,0,0,0,0,.02,0,.02-.01h0s.02-.01.02-.02c0,0,0,0,0,0,.02-.01.03-.02.05-.03,0,0,0,0,.01,0,0,0,0,0,.01,0,0,0,0,0,.01,0,0,0,0,0,.01,0,0,0,.01,0,.02,0,0,0,0,0,0,0,0,0,.01,0,.02-.01,0,0,0,0,0,0,0,0,.01,0,.02-.01,0,0,0,0,0,0,0,0,.01,0,.02-.01,0,0,0,0,0,0,0,0,.01,0,.02-.01,0,0,0,0,0,0,.05-.03.09-.06.14-.09,0,0,0,0,0,0,0,0,.02,0,.02-.01,0,0,0,0,0,0,0,0,.02,0,.02-.01,0,0,0,0,0,0,0,0,.01,0,.02-.01,0,0,0,0,0,0,0,0,.02,0,.02-.01,0,0,0,0,0,0,.06-.04.13-.08.19-.12,0,0,0,0,0,0,.26-.16.53-.32.79-.48.23-.15.3-.45.16-.69-.09-.15-.26-.24-.43-.24h0ZM123.17,140.23c-.1,0-.2.03-.29.09-.54.38-1.08.76-1.62,1.12-.23.15-.29.46-.14.69.1.14.25.22.42.22.1,0,.19-.03.28-.09.21-.14.41-.28.62-.42,0,0,0,0,0,0,0,0,.02-.01.02-.02h0s.02-.01.02-.02c0,0,0,0,0,0,0,0,.02-.01.03-.02h0s.07-.05.1-.07h0s.02-.01.02-.02c0,0,0,0,0,0,0,0,.01,0,.02-.01,0,0,0,0,0,0,0,0,.01,0,.02-.01,0,0,0,0,0,0,0,0,.01,0,.02-.01,0,0,0,0,0,0,0,0,.01,0,.02-.01,0,0,0,0,0,0,0,0,.01,0,.02-.01h0s.02-.01.02-.02c0,0,0,0,0,0,.02-.01.03-.02.05-.03,0,0,0,0,0,0,0,0,.01,0,.02-.01,0,0,0,0,0,0,0,0,.01,0,.02-.01,0,0,0,0,0,0,0,0,.01,0,.02-.01,0,0,0,0,.01,0,0,0,0,0,.01,0,0,0,0,0,.01,0,0,0,0,0,.01,0,0,0,0,0,.01,0,0,0,0,0,.01,0,0,0,0,0,.01,0,0,0,0,0,.01,0,0,0,0,0,.01,0,0,0,.01,0,.01-.01,0,0,.01,0,.02-.01,0,0,0,0,.01,0,0,0,0,0,.01,0,0,0,0,0,.01,0,0,0,0,0,.01,0,0,0,0,0,.01,0,0,0,0,0,.01,0,0,0,0,0,.01,0,0,0,.01,0,.01-.01,0,0,0,0,0,0,0,0,.01,0,.01-.01,0,0,0,0,0,0,0,0,0,0,.02-.01,0,0,0,0,0,0,0,0,0,0,.02-.01h0s.05-.04.08-.06c0,0,0,0,0,0,0,0,.01,0,.02-.01,0,0,0,0,0,0,0,0,.01,0,.02-.01,0,0,0,0,0,0,0,0,.01,0,.02-.01h0s.01-.01.02-.02c0,0,0,0,0,0,0,0,.01,0,.02-.01,0,0,0,0,0,0,0,0,0,0,.01-.01.22-.16.28-.47.12-.7-.1-.14-.25-.21-.41-.21h0ZM127.11,137.21c-.11,0-.22.04-.32.11-.51.42-1.02.83-1.54,1.23-.22.17-.26.48-.09.7.1.13.25.19.4.19.11,0,.21-.03.3-.1.07-.05.14-.11.21-.16,0,0,0,0,0,0,0,0,0,0,.01,0,0,0,0,0,.01-.01,0,0,0,0,0,0,0,0,.01,0,.02-.01,0,0,0,0,0,0,0,0,.01,0,.02-.01,0,0,0,0,0,0,0,0,.01,0,.02-.01,0,0,0,0,0,0,0,0,.01-.01.02-.02h0s.1-.08.15-.12h0s.02-.01.02-.02h0s.02-.01.02-.02c0,0,0,0,0,0,.05-.04.1-.08.15-.11,0,0,0,0,0,0,0,0,.01,0,.02-.01,0,0,0,0,0,0,0,0,.01,0,.02-.01,0,0,0,0,0,0,0,0,.01,0,.01-.01,0,0,0,0,0,0,0,0,0,0,.01-.01,0,0,0,0,.01,0,0,0,0,0,.01-.01,0,0,0,0,.01,0,0,0,0,0,0,0,.02-.01.04-.03.05-.04,0,0,0,0,0,0,0,0,.01,0,.02-.01,0,0,0,0,0,0,0,0,.01,0,.02-.01,0,0,0,0,0,0,0,0,.01,0,.02-.01h0s.01-.01.02-.02c0,0,0,0,0,0,0,0,.01,0,.02-.02,0,0,0,0,0,0,.14-.11.28-.22.42-.34,0,0,0,0,0,0,0,0,.01-.01.02-.02,0,0,0,0,0,0,0,0,.01-.01.02-.02h0s.05-.04.08-.07c0,0,0,0,0,0,0,0,0,0,.01,0,0,0,0,0,.01-.01,0,0,0,0,0,0,.21-.17.25-.49.07-.7-.1-.12-.24-.18-.39-.18h0ZM130.85,133.95c-.12,0-.24.04-.34.13-.48.45-.97.89-1.46,1.33-.21.18-.23.5-.04.71.1.11.24.17.37.17.12,0,.24-.04.33-.13.02-.02.05-.04.07-.06h0s.01-.01.02-.02c0,0,0,0,0,0,0,0,.01,0,.02-.01,0,0,0,0,0,0,0,0,0,0,.01-.01,0,0,0,0,0,0,0,0,0,0,.01-.01,0,0,0,0,.01,0,0,0,0,0,.01-.01,0,0,0,0,.01-.01h.01s0-.02.01-.02c0,0,0,0,0,0l.03-.03h0s.01-.01.02-.02c0,0,0,0,0,0,0,0,.01,0,.02-.01,0,0,0,0,0,0,0,0,.01,0,.02-.01,0,0,0,0,0,0,0,0,.01,0,.02-.01h0s.01-.02.02-.02c0,0,0,0,0,0,0,0,.01-.01.02-.02,0,0,0,0,0,0,0,0,.01-.01.02-.02,0,0,0,0,0,0,.03-.03.07-.06.1-.09,0,0,0,0,0,0,0,0,.01-.01.02-.02,0,0,0,0,0,0,0,0,.01-.01.02-.01,0,0,0,0,0,0,0,0,.01,0,.02-.02,0,0,0,0,0,0,0,0,.01,0,.02-.02,0,0,0,0,0,0,0,0,.01-.01.02-.02h0s.05-.05.08-.07c0,0,0,0,0,0h.02s0-.02,0-.02c0,0,0,0,.01-.01,0,0,0,0,0,0,0,0,.01-.01.01-.01,0,0,0,0,0,0,0,0,.01,0,.01-.01,0,0,0,0,0,0,0,0,0,0,.01-.01,0,0,0,0,0,0,0,0,0,0,.01-.01,0,0,0,0,0,0,0,0,0,0,.01-.01,0,0,0,0,0,0,0,0,.02-.02.03-.02h.01s0-.02.01-.02c0,0,0,0,.01-.01,0,0,0,0,.01-.01,0,0,0,0,.01,0,0,0,0,0,.01-.01h.01s0-.02.01-.02c0,0,0,0,.01-.01,0,0,0,0,.01,0,0,0,0,0,.01-.01,0,0,0,0,0,0,0,0,0,0,.01-.01,0,0,0,0,0,0,0,0,.01-.01.02-.02,0,0,0,0,0,0,.01-.01.03-.03.04-.04,0,0,0,0,0,0,0,0,.01-.01.02-.02,0,0,0,0,0,0,0,0,.01,0,.02-.01,0,0,0,0,0,0h.02s0-.02,0-.02c0,0,.01,0,.02-.01,0,0,0,0,0,0h.02s0-.02,0-.02c0,0,.01-.01.02-.02h0s.01-.02.02-.02c0,0,0,0,0,0,.02-.01.03-.03.05-.04,0,0,0,0,0,0l.02-.02h0s.01-.01.02-.02c0,0,0,0,0,0,0,0,.01-.01.02-.02,0,0,0,0,0,0,0,0,.01-.01.02-.02,0,0,0,0,0,0,0,0,.01-.01.02-.02,0,0,0,0,0,0,0,0,.01-.01.02-.02,0,0,0,0,0,0l.02-.02s0,0,0,0l.02-.02c.2-.19.21-.5.02-.71-.1-.11-.23-.16-.37-.16h0ZM134.37,130.44c-.13,0-.27.05-.36.16-.45.48-.91.95-1.37,1.42-.19.2-.19.51,0,.71.1.1.22.14.35.14s.26-.05.35-.15c.17-.17.35-.35.52-.53,0,0,0,0,0,0,0,0,.01-.01.02-.02,0,0,0,0,0,0,0,0,.01-.01.02-.02,0,0,0,0,0,0,0,0,.01-.01.02-.02h0s.01-.01.02-.02c0,0,0,0,0,0,.03-.03.06-.06.09-.1,0,0,0,0,0,0,0,0,.01-.01.02-.02,0,0,0,0,0,0,0,0,0,0,.01-.01,0,0,0,0,0,0,0,0,.01-.01.01-.01,0,0,0,0,0,0,0,0,0,0,.01-.01,0,0,0,0,0,0,0,0,0,0,.01-.02,0,0,0,0,0,0,0,0,0,0,.01-.01,0,0,0,0,0,0,.02-.02.04-.04.05-.06,0,0,0,0,0,0v-.02s.02,0,.02,0c0,0,0,0,.01-.01,0,0,0,0,0,0,0,0,0,0,.01-.01,0,0,0,0,0,0,0,0,0,0,.01-.01,0,0,0,0,0-.01,0,0,0,0,.01-.01,0,0,0,0,0,0,0,0,0,0,.01-.01,0,0,0,0,0,0,0,0,0,0,.01-.01,0,0,0,0,0,0,0,0,0,0,.01-.01,0,0,0,0,0,0,0,0,.02-.02.02-.02,0,0,0,0,0,0,0,0,0,0,.01-.01h.01s0-.02,0-.02h.01s0-.02,0-.02c0,0,0,0,.01-.01,0,0,0,0,0-.01,0,0,0,0,.01-.01,0,0,0,0,0,0,0,0,0,0,.01-.01,0,0,0,0,0,0,0,0,0,0,.01-.01,0,0,0,0,0,0l.02-.02s0,0,0,0c.01-.01.03-.03.04-.04h0s.01-.02.02-.02c0,0,0,0,0,0,0,0,.01-.01.02-.02,0,0,0,0,0,0,0,0,.01-.01.02-.02h0s.01-.02.02-.02c0,0,0,0,0,0l.02-.02h0s.01-.02.02-.02c.19-.2.18-.52-.02-.71-.1-.09-.22-.14-.34-.14h0ZM137.64,126.7c-.14,0-.29.06-.39.18-.42.51-.84,1.01-1.27,1.51-.18.21-.16.52.05.71.09.08.21.12.33.12.14,0,.28-.06.38-.17.44-.51.87-1.02,1.29-1.53.17-.21.14-.53-.07-.7-.09-.08-.21-.11-.32-.11h0ZM140.66,122.76c-.16,0-.31.07-.41.21-.38.54-.77,1.07-1.17,1.59-.17.22-.12.53.1.7.09.07.2.1.3.1.15,0,.3-.07.4-.2.33-.44.66-.89.99-1.34,0,0,.01-.02.02-.02,0,0,0,0,0,0,0,0,.01-.01.02-.02h0s.01-.02.02-.03h0c.05-.07.1-.14.15-.2.16-.22.11-.54-.12-.7-.09-.06-.19-.09-.29-.09h0ZM143.41,118.63c-.17,0-.33.08-.43.24-.35.56-.7,1.11-1.06,1.66-.15.23-.09.54.14.69.08.06.18.08.27.08.16,0,.32-.08.42-.23.21-.31.41-.63.61-.94,0,0,0,0,0,0,0,0,0-.01.01-.02,0,0,0,0,0,0,0,0,0-.01.01-.02,0,0,0,0,0,0v-.02s.02,0,.02,0c0,0,0-.01,0-.02,0,0,0,0,0-.01,0,0,0,0,0-.01,0,0,0,0,0-.01,0,0,0,0,0,0,.13-.2.25-.4.38-.6.14-.23.07-.54-.16-.69-.08-.05-.17-.07-.26-.07h0ZM145.88,114.32c-.18,0-.35.1-.44.27-.31.58-.62,1.16-.95,1.73-.14.24-.05.55.19.68.08.04.16.06.25.06.17,0,.34-.09.44-.25.3-.53.59-1.06.87-1.59h0s0-.02.01-.03c0,0,0,0,0,0,0,0,0-.01.01-.02,0,0,0,0,0,0,0,0,0-.01,0-.02,0,0,0,0,0,0,0,0,0-.01,0-.02,0,0,0,0,0-.01,0,0,0,0,0-.01,0,0,0,0,0-.01,0,0,0,0,0,0,0,0,0-.01,0-.02.13-.24.04-.55-.21-.68-.07-.04-.15-.06-.23-.06h0ZM148.06,109.85c-.19,0-.37.11-.46.3-.27.6-.54,1.2-.83,1.79-.12.25-.01.55.23.67.07.03.14.05.22.05.19,0,.36-.1.45-.28.04-.08.08-.16.12-.24,0,0,0,0,0,0,0,0,0-.01,0-.02,0,0,0,0,0,0,0,0,0-.01,0-.02h0s0-.02,0-.03c0,0,0-.01,0-.02,0,0,0,0,0,0,0,0,0-.02.01-.02h0c.13-.28.27-.57.4-.85h0s0-.02.01-.03h0s.02-.04.03-.06h0s0-.02.01-.03c0,0,0-.01,0-.02,0,0,0,0,0,0,0,0,0-.01.01-.02,0,0,0,0,0,0,0,0,0-.02.01-.02,0,0,0,0,0,0,.06-.14.12-.27.19-.41.11-.25,0-.55-.25-.66-.07-.03-.14-.04-.2-.04h0ZM149.93,105.26c-.2,0-.39.13-.47.33-.23.62-.46,1.23-.71,1.84-.1.26.02.55.28.65.06.02.12.04.19.04.2,0,.39-.12.46-.31.05-.13.11-.27.16-.41,0,0,0,0,0,0,0,0,0-.01,0-.02,0,0,0,0,0-.01,0,0,0,0,0-.01,0,0,0-.01,0-.02,0,0,0,0,0,0,0,0,0-.01,0-.02,0,0,0,0,0,0,0,0,0-.02,0-.02h0c.17-.44.34-.89.51-1.33.09-.26-.04-.54-.3-.64-.06-.02-.12-.03-.17-.03h0ZM151.49,100.54c-.22,0-.42.14-.48.36-.19.63-.38,1.26-.58,1.89-.08.26.06.54.32.63.05.02.1.02.15.02.21,0,.41-.13.48-.35,0,0,0,0,0,0,0,0,0-.02,0-.02,0,0,0,0,0,0,0,0,0-.02,0-.02,0,0,0,0,0,0,0,0,0-.02,0-.03h0s0-.02,0-.03h0c.14-.43.27-.85.4-1.28,0,0,0,0,0,0,0,0,0-.01,0-.02,0,0,0,0,0-.02,0,0,0,0,0-.01,0,0,0-.01,0-.02,0,0,0,0,0,0,0,0,0-.01,0-.02,0,0,0,0,0,0,0,0,0-.01,0-.02,0,0,0,0,0,0,.04-.13.07-.25.11-.38.08-.26-.08-.54-.34-.62-.05-.01-.09-.02-.14-.02h0ZM152.73,95.73c-.23,0-.44.16-.49.39-.14.64-.29,1.28-.45,1.92-.07.27.1.54.36.61.04.01.08.02.12.02.22,0,.43-.15.48-.38.16-.65.32-1.29.46-1.95.06-.27-.11-.54-.38-.6-.04,0-.07-.01-.11-.01h0ZM153.64,90.85c-.24,0-.46.18-.49.42-.1.65-.21,1.3-.32,1.95-.05.27.13.53.4.58.03,0,.06,0,.09,0,.24,0,.45-.17.49-.41,0-.05.02-.1.03-.15,0,0,0-.02,0-.03,0,0,0,0,0,0,0,0,0-.02,0-.03h0c.06-.32.11-.63.16-.95,0,0,0,0,0,0,0,0,0-.01,0-.02,0,0,0,0,0-.01,0,0,0,0,0-.02,0,0,0,0,0-.01,0,0,0,0,0-.01,0,0,0-.01,0-.02,0,0,0,0,0-.01,0,0,0-.01,0-.02,0,0,0,0,0-.01,0,0,0-.01,0-.02,0,0,0,0,0,0,0,0,0-.01,0-.02,0,0,0,0,0,0,0,0,0-.02,0-.02,0,0,0,0,0,0,0,0,0-.02,0-.03,0,0,0,0,0,0,0,0,0-.02,0-.03h0c.03-.18.06-.35.08-.53.04-.27-.15-.53-.42-.57-.03,0-.05,0-.08,0h0ZM154.23,85.92c-.26,0-.48.2-.5.46-.06.66-.12,1.31-.19,1.96-.03.27.17.52.44.55.02,0,.04,0,.06,0,.25,0,.47-.19.5-.44.02-.16.04-.33.05-.49,0,0,0,0,0,0,0,0,0-.01,0-.02,0,0,0,0,0-.01,0,0,0,0,0-.01,0,0,0-.01,0-.02,0,0,0,0,0-.01v-.02s0,0,0,0c0,0,0-.02,0-.02,0,0,0,0,0,0,0,0,0-.02,0-.03h0c.04-.42.08-.83.12-1.25h0s0-.02,0-.03c0,0,0,0,0,0,0,0,0-.02,0-.03,0,0,0,0,0,0,0,0,0-.01,0-.02,0,0,0,0,0,0,.02-.27-.18-.52-.46-.54-.01,0-.03,0-.04,0h0ZM154.49,80.96c-.27,0-.49.22-.5.49-.01.66-.03,1.32-.06,1.97-.01.28.2.51.48.52,0,0,.02,0,.02,0,.27,0,.49-.21.5-.48,0-.13.01-.27.02-.4h0s0-.02,0-.03h0s0-.02,0-.03c0,0,0,0,0,0,0,0,0-.01,0-.02,0,0,0,0,0-.01,0,0,0-.01,0-.02,0,0,0,0,0-.01,0,0,0-.01,0-.02,0,0,0,0,0-.01s0,0,0-.01c0,0,0,0,0-.02,0,0,0,0,0-.01,0,0,0-.01,0-.02,0,0,0,0,0,0,0,0,0-.02,0-.02,0,0,0,0,0,0,.01-.29.02-.58.03-.87h0c0-.05,0-.11,0-.16,0,0,0-.01,0-.02h0s0-.02,0-.03h0s0-.04,0-.06h0c0-.06,0-.13,0-.19,0-.28-.21-.5-.49-.51,0,0,0,0,0,0h0ZM154.42,75.99s-.02,0-.02,0c-.28.01-.49.25-.48.52.03.66.05,1.31.07,1.97,0,.27.23.49.5.49,0,0,0,0,.01,0,.27,0,.49-.23.49-.51,0-.17,0-.35-.01-.53h0s0-.02,0-.03c0,0,0,0,0,0,0,0,0-.01,0-.02,0,0,0,0,0-.01,0,0,0,0,0-.02,0,0,0,0,0-.01,0,0,0-.01,0-.01,0,0,0-.01,0-.02,0,0,0,0,0-.01,0,0,0-.01,0-.02,0,0,0,0,0-.01,0,0,0-.01,0-.02,0,0,0,0,0-.01,0,0,0-.01,0-.02,0,0,0,0,0-.01,0,0,0-.01,0-.02,0,0,0,0,0,0v-.02s0,0,0,0c0,0,0-.02,0-.02h0s0-.02,0-.03h0s0-.02,0-.03h0s0-.02,0-.03c0,0,0,0,0,0,0,0,0-.02,0-.03,0,0,0,0,0,0v-.03s0,0,0,0c0,0,0-.02,0-.03h0s0-.02,0-.03h0c-.01-.31-.02-.62-.04-.94-.01-.27-.23-.48-.5-.48h0ZM154.03,71.04s-.04,0-.06,0c-.27.03-.47.28-.44.55.07.65.14,1.31.2,1.96.02.26.24.46.5.46.01,0,.03,0,.04,0,.27-.02.48-.26.46-.54-.03-.36-.06-.72-.1-1.08,0,0,0,0,0,0,0,0,0-.01,0-.02,0,0,0,0,0,0,0,0,0-.01,0-.02,0,0,0,0,0-.01,0,0,0-.01,0-.02,0,0,0-.01,0-.02,0,0,0,0,0-.01,0,0,0-.01,0-.02,0,0,0,0,0-.01,0,0,0-.01,0-.02,0,0,0,0,0-.01,0,0,0-.01,0-.02,0,0,0,0,0-.01,0,0,0-.01,0-.02,0,0,0,0,0,0,0,0,0-.01,0-.02,0,0,0,0,0,0,0,0,0-.02,0-.02,0,0,0,0,0,0,0,0,0-.02,0-.03,0,0,0,0,0,0,0-.01,0-.02,0-.03h0c-.02-.19-.04-.37-.06-.56-.03-.26-.25-.44-.5-.44h0ZM153.3,66.13s-.06,0-.09,0c-.27.05-.45.31-.4.58.12.65.23,1.29.33,1.95.04.25.25.42.49.42.03,0,.05,0,.08,0,.27-.04.46-.3.42-.57-.03-.17-.05-.34-.08-.52,0,0,0,0,0,0,0,0,0-.01,0-.02,0,0,0,0,0,0,0,0,0-.01,0-.02,0,0,0,0,0-.01,0,0,0-.01,0-.02,0,0,0,0,0-.01,0,0,0-.01,0-.02,0,0,0-.01,0-.02,0,0,0,0,0-.01v-.02s0,0,0-.01c0,0,0-.01,0-.02,0,0,0,0,0,0,0,0,0-.02,0-.02,0,0,0,0,0,0,0,0,0-.02,0-.03h0c-.06-.38-.13-.76-.2-1.14h0s0-.02,0-.03c0,0,0,0,0,0,0,0,0-.01,0-.02h0c-.04-.25-.25-.42-.49-.42h0ZM152.26,61.28s-.08,0-.12.02c-.27.07-.43.34-.36.61.16.64.31,1.28.46,1.92.05.23.26.39.49.39.04,0,.07,0,.11-.01.27-.06.44-.33.38-.6-.1-.43-.19-.85-.3-1.28,0,0,0,0,0,0,0,0,0-.01,0-.02,0,0,0,0,0-.01,0,0,0-.01,0-.02,0,0,0,0,0-.01,0,0,0,0,0-.01,0,0,0-.01,0-.02,0,0,0,0,0-.01,0,0,0-.01,0-.02,0,0,0,0,0,0,0,0,0-.01,0-.02,0,0,0,0,0,0,0,0,0-.02,0-.02,0,0,0,0,0,0-.04-.16-.08-.32-.12-.48-.06-.23-.26-.38-.48-.38h0ZM150.88,56.5c-.05,0-.1,0-.15.02-.26.09-.41.37-.32.63.2.62.4,1.25.58,1.88.06.22.26.36.48.36.05,0,.09,0,.14-.02.26-.08.42-.36.34-.62-.04-.12-.07-.24-.11-.36h0s0-.02,0-.03c0,0,0,0,0,0v-.02s0,0,0,0c0,0,0-.01,0-.02,0,0,0-.01,0-.01,0,0,0,0,0-.01,0,0,0-.01,0-.02,0,0,0,0,0,0-.12-.38-.23-.76-.36-1.14,0,0,0,0,0,0,0,0,0,0,0-.01,0,0,0-.01,0-.02,0,0,0,0,0,0,0,0,0-.02,0-.02h0s0-.02,0-.03h0c-.02-.06-.04-.12-.06-.18-.07-.21-.26-.35-.48-.35h0ZM149.19,51.84c-.06,0-.12.01-.19.04-.26.1-.38.39-.28.65.24.61.48,1.22.71,1.84.07.2.27.33.47.33.06,0,.12-.01.17-.03.26-.1.39-.38.3-.64,0,0,0,0,0,0,0,0,0-.02,0-.02,0,0,0,0,0,0,0,0,0-.02-.01-.03h0c-.15-.41-.31-.82-.47-1.23h0s0-.02-.01-.03h0s0-.02-.01-.03h0s0-.02,0-.03c0,0,0,0,0,0,0,0,0-.01,0-.02,0,0,0,0,0,0,0,0,0-.02,0-.02h0s0-.02-.01-.03c0,0,0,0,0,0l-.02-.06s0,0,0,0v-.02s-.01,0-.01-.01c0,0,0-.01,0-.02,0,0,0,0,0-.01,0,0,0,0,0-.01,0,0,0-.01,0-.01,0,0,0,0,0-.01,0,0,0-.01,0-.02,0,0,0,0,0,0,0,0,0-.01,0-.02,0,0,0,0,0-.01,0,0,0-.01,0-.02,0,0,0,0,0,0,0,0,0-.01,0-.02,0,0,0,0,0,0,0,0,0-.01,0-.02h0s-.03-.07-.04-.11c-.08-.2-.27-.31-.46-.31h0ZM147.2,47.29c-.07,0-.15.02-.22.05-.25.12-.35.42-.23.67.28.59.56,1.19.83,1.79.08.19.27.3.46.3.07,0,.14-.01.2-.04.25-.11.36-.41.25-.66-.1-.22-.2-.45-.3-.67h0s0-.02-.01-.03c0,0,0,0,0,0,0,0,0-.02-.01-.02,0,0,0,0,0,0-.01-.03-.03-.06-.04-.09,0,0,0,0,0-.01,0,0,0,0,0-.01h0s0-.02,0-.03c0,0,0-.01,0-.02,0,0,0,0,0-.01v-.02s-.01,0-.01-.01c0,0,0-.01,0-.02,0,0,0,0,0-.01,0,0,0-.01,0-.02,0,0,0,0,0,0,0,0,0-.01,0-.02,0,0,0,0,0,0,0,0,0-.02-.01-.02h0s-.03-.08-.05-.12h0s0-.02-.01-.03h0s0-.02-.01-.03c0,0,0,0,0,0,0,0,0-.02-.01-.02h0s0-.02-.01-.03c0,0,0,0,0,0,0,0,0-.02-.01-.03h0s0-.02-.01-.03h0s-.04-.08-.05-.11h0s0-.02-.01-.03c0,0,0,0,0,0,0,0,0-.01-.01-.02,0,0,0,0,0,0,0,0,0-.01,0-.02,0,0,0,0,0,0v-.02s-.01,0-.01,0c0,0,0-.01,0-.02,0,0,0,0,0-.01,0,0,0-.01,0-.02,0,0,0,0,0-.01,0,0,0-.01,0-.02,0,0,0,0,0-.01v-.02s-.01,0-.01-.01c0,0,0,0,0,0,0-.01-.01-.03-.02-.04,0,0,0,0,0-.01,0,0,0-.01,0-.02,0,0,0,0,0,0,0,0,0-.01,0-.02,0,0,0,0,0,0,0,0,0-.01,0-.02,0,0,0,0,0,0,0,0,0-.01,0-.02,0,0,0,0,0,0,0,0,0,0,0-.01-.09-.18-.26-.28-.45-.28h0ZM144.9,42.89c-.08,0-.17.02-.25.06-.24.14-.32.44-.19.68.32.57.64,1.15.95,1.73.09.17.26.27.44.27.08,0,.16-.02.23-.06.24-.13.34-.43.21-.68,0,0,0-.01,0-.02,0,0,0,0,0,0,0,0,0-.01-.01-.02,0,0,0,0,0,0,0,0,0-.01,0-.02,0,0,0,0,0,0,0,0,0-.01,0-.02,0,0,0,0,0,0,0,0,0-.01,0-.02,0,0,0,0,0,0,0,0,0-.01,0-.02,0,0,0,0,0,0,0,0,0-.01,0-.02,0,0,0,0,0,0-.01-.02-.02-.04-.03-.06,0,0,0,0,0,0,0,0,0-.01,0-.01,0,0,0,0,0-.01,0,0,0,0,0-.01,0,0,0,0,0-.01,0,0,0,0,0-.01,0,0,0,0,0-.01,0,0,0-.01,0-.02h0s0-.02,0-.03c0,0,0,0,0-.01,0,0,0-.01,0-.02h0s0-.02,0-.03h0s0-.02,0-.03c0,0,0,0,0,0-.01-.02-.02-.04-.03-.06,0,0,0,0,0,0,0,0,0-.01,0-.02,0,0,0,0,0,0,0,0,0-.01,0-.02,0,0,0,0,0,0,0,0,0,0,0-.02,0,0,0,0,0-.01,0,0,0-.01,0-.02,0,0,0,0,0-.01,0,0,0-.01,0-.02,0,0,0,0,0-.01,0,0,0-.01,0-.02,0,0,0,0,0,0,0,0,0-.01,0-.02,0,0,0,0,0,0-.02-.03-.03-.06-.05-.09,0,0,0,0,0,0,0,0,0-.02-.01-.02,0,0,0,0,0,0,0,0,0-.01-.01-.02,0,0,0,0,0,0,0,0,0-.01-.01-.02,0,0,0,0,0,0,0,0,0-.01-.01-.02,0,0,0,0,0,0,0,0,0-.01-.01-.02,0,0,0,0,0,0,0,0,0-.01-.01-.02,0,0,0,0,0,0-.03-.05-.05-.1-.08-.15,0,0,0,0,0,0,0,0,0-.01-.01-.02,0,0,0,0,0,0,0,0,0-.01-.01-.02,0,0,0,0,0,0,0,0,0-.01-.01-.02,0,0,0,0,0,0,0,0,0-.01-.01-.02,0,0,0,0,0,0,0,0,0-.01-.01-.02,0,0,0,0,0,0-.02-.04-.04-.08-.07-.12,0,0,0,0,0,0,0,0,0-.01-.01-.02,0,0,0,0,0,0,0,0,0-.01-.01-.02,0,0,0,0,0,0,0,0,0-.01-.01-.02,0,0,0,0,0,0,0,0,0-.01,0-.02,0,0,0,0,0,0,0,0,0-.01,0-.02,0,0,0,0,0,0,0,0,0-.01,0-.02,0,0,0,0,0,0,0,0,0-.01,0-.02,0,0,0,0,0,0-.01-.02-.02-.04-.03-.06,0,0,0,0,0-.01,0,0,0,0,0-.01,0,0,0-.01,0-.02,0,0,0,0,0-.01,0,0,0-.01,0-.02,0,0,0,0,0-.01,0,0,0-.01,0-.02,0,0,0,0,0,0,0,0,0-.01-.01-.02,0,0,0,0,0,0,0,0,0-.01-.01-.02,0,0,0,0,0,0,0,0,0-.01-.01-.02h0c-.09-.17-.26-.26-.44-.26h0ZM142.31,38.65c-.09,0-.19.03-.27.08-.23.15-.29.46-.14.69.36.55.71,1.1,1.06,1.66.09.15.26.24.43.24.09,0,.18-.02.26-.08.23-.15.31-.45.16-.69-.18-.28-.35-.57-.53-.85h0s0-.02-.01-.03c0,0,0,0,0,0,0,0,0-.01-.01-.02,0,0,0,0,0,0,0,0,0-.01-.01-.02,0,0,0,0,0,0,0,0,0-.01-.01-.02,0,0,0,0,0-.01,0,0,0,0,0-.01,0,0,0,0,0-.01,0,0,0,0,0-.01,0,0,0,0,0-.01,0,0,0,0,0-.01-.01-.02-.03-.04-.04-.06,0,0,0,0,0,0,0,0,0-.01-.01-.02,0,0,0,0,0,0,0,0,0-.01-.01-.02,0,0,0,0,0,0,0,0,0-.01-.01-.02h0s0-.02-.01-.02c0,0,0,0,0,0,0,0,0-.01-.01-.02,0,0,0,0,0,0,0,0,0-.01-.01-.02,0,0,0,0,0,0-.02-.04-.05-.07-.07-.11,0,0,0,0,0,0,0,0,0,0-.01-.02,0,0,0,0,0,0,0,0,0,0,0-.01h0s0-.02,0-.02c0,0,0,0,0-.01,0,0,0,0,0-.01,0,0,0,0,0-.01,0,0,0,0,0,0,0,0,0-.01-.01-.02,0,0,0,0,0,0-.05-.07-.09-.14-.14-.21-.1-.15-.26-.23-.42-.23h0ZM139.45,34.59c-.1,0-.21.03-.3.1-.22.17-.26.48-.1.7.4.52.79,1.05,1.17,1.59.1.14.25.21.41.21.1,0,.2-.03.29-.09.22-.16.28-.47.12-.7-.39-.54-.78-1.08-1.19-1.61-.1-.13-.25-.2-.4-.2h0ZM136.32,30.73c-.12,0-.23.04-.33.12-.21.18-.23.5-.05.71.43.5.85,1,1.27,1.51.1.12.24.18.39.18.11,0,.22-.04.32-.11.21-.17.24-.49.07-.7-.12-.14-.23-.28-.35-.42,0,0,0,0,0,0,0,0-.01-.01-.02-.02,0,0,0,0,0,0,0,0,0-.01-.02-.02,0,0,0,0,0,0,0,0,0-.01-.01-.02,0,0,0,0,0,0,0,0,0,0-.01-.01,0,0,0,0,0,0,0,0,0,0-.01-.01,0,0-.01-.01-.02-.02,0,0,0,0,0,0v-.02s-.02,0-.02,0c0,0,0-.01-.01-.02,0,0,0,0,0,0,0,0-.01-.01-.02-.02t0,0s-.01-.01-.02-.02h0s-.01-.02-.02-.02h0c-.24-.29-.48-.57-.73-.86-.1-.11-.24-.17-.38-.17h0ZM132.95,27.09c-.13,0-.25.05-.35.14-.2.19-.2.51,0,.71.46.47.92.94,1.37,1.42.1.1.23.16.36.16.12,0,.25-.04.34-.14.2-.19.21-.51.02-.71-.19-.2-.39-.41-.58-.61h0s-.01-.01-.02-.02c0,0,0,0,0,0,0,0-.01-.01-.02-.02,0,0,0,0,0,0,0,0,0,0-.01-.01,0,0,0,0,0,0,0,0,0,0-.01-.01,0,0,0,0-.01-.01,0,0,0,0,0,0-.24-.24-.47-.49-.71-.73-.1-.1-.23-.15-.35-.15h0ZM129.34,23.68c-.14,0-.28.06-.37.17-.18.21-.16.52.04.71.49.44.98.88,1.46,1.33.1.09.22.13.34.13.13,0,.27-.05.37-.16.19-.2.18-.52-.02-.71-.3-.28-.61-.57-.92-.84h0s-.01-.01-.02-.02c0,0,0,0,0,0,0,0-.01-.01-.02-.02h0s-.01-.01-.02-.02c0,0,0,0,0,0,0,0-.01-.01-.02-.02,0,0,0,0,0,0,0,0-.01-.01-.02-.02,0,0,0,0-.01-.01,0,0,0,0,0,0,0,0-.01-.01-.02-.02,0,0,0,0,0,0,0,0-.01-.01-.02-.02,0,0,0,0,0,0-.13-.11-.26-.23-.38-.34-.09-.08-.21-.12-.33-.12h0ZM125.51,20.51c-.15,0-.3.07-.4.19-.17.22-.13.53.09.7.52.4,1.04.81,1.55,1.23.09.08.2.11.32.11.15,0,.29-.06.39-.18.17-.21.14-.53-.07-.7-.13-.1-.25-.2-.38-.31,0,0,0,0,0,0,0,0-.01,0-.02-.02,0,0,0,0,0,0,0,0-.01,0-.02-.01,0,0,0,0,0,0,0,0,0,0-.02-.01,0,0-.01,0-.02-.01,0,0,0,0,0,0,0,0-.02-.01-.02-.02h0s-.01-.01-.02-.02h0s-.01-.01-.02-.02h0s-.02-.01-.02-.02h0s-.02-.01-.02-.02h0c-.33-.26-.65-.52-.98-.77-.09-.07-.2-.1-.31-.1h0ZM121.48,17.61c-.16,0-.32.08-.42.22-.15.23-.09.54.14.69.55.37,1.09.74,1.62,1.12.09.06.19.09.29.09.16,0,.31-.07.41-.21.16-.22.11-.54-.12-.7-.15-.11-.3-.21-.45-.32,0,0,0,0,0,0,0,0-.01,0-.02-.01h0s-.01-.01-.01-.02c0,0,0,0,0,0,0,0-.01,0-.01-.01,0,0,0,0-.01,0,0,0,0,0-.01,0,0,0,0,0-.01,0,0,0,0,0-.01,0,0,0,0,0-.01,0,0,0,0,0-.01,0h-.02s0-.02,0-.02c0,0-.02-.01-.02-.02,0,0,0,0,0,0,0,0-.01,0-.02-.01,0,0,0,0,0,0,0,0-.01,0-.02-.01,0,0,0,0,0,0,0,0-.01,0-.02-.01,0,0,0,0,0,0,0,0-.01,0-.02-.01,0,0,0,0,0,0,0,0-.01,0-.02-.01,0,0,0,0,0,0,0,0-.01,0-.02-.01,0,0,0,0,0,0,0,0-.01,0-.02-.01,0,0,0,0,0,0,0,0-.01-.01-.02-.02,0,0,0,0,0,0l-.05-.03h0s-.01-.01-.02-.02h0s-.01-.01-.02-.02c0,0,0,0,0,0h-.02s0-.01,0-.02c0,0-.01,0-.02-.01,0,0,0,0,0,0h-.02s0-.02,0-.02c0,0-.02-.01-.02-.02h0c-.2-.14-.4-.27-.59-.4-.09-.06-.18-.08-.28-.08h0ZM117.27,14.98c-.17,0-.34.09-.43.25-.14.24-.06.54.18.68.57.33,1.13.67,1.69,1.01.08.05.17.07.26.07.17,0,.33-.08.43-.24.14-.24.07-.54-.16-.69-.27-.16-.53-.32-.8-.48,0,0,0,0,0,0,0,0-.02,0-.02-.01h0s-.01-.01-.02-.01c0,0,0,0,0,0-.02-.01-.03-.02-.05-.03,0,0,0,0-.01,0,0,0,0,0-.01,0,0,0-.01,0-.02-.01,0,0,0,0,0,0,0,0-.01,0-.02-.01,0,0,0,0,0,0,0,0-.01,0-.02-.01,0,0,0,0,0,0-.24-.14-.48-.28-.72-.42-.08-.04-.16-.07-.25-.07h0ZM112.89,12.64c-.18,0-.36.1-.45.28-.12.25-.02.55.23.67.59.29,1.18.59,1.76.9.07.04.15.06.23.06.18,0,.35-.1.44-.27.13-.24.04-.55-.21-.67-.1-.05-.2-.1-.29-.15,0,0,0,0,0,0,0,0,0,0-.01,0,0,0-.01,0-.02,0,0,0,0,0,0,0,0,0-.01,0-.02-.01,0,0,0,0,0,0,0,0-.02,0-.02-.01h0c-.46-.24-.93-.48-1.39-.71-.07-.04-.15-.05-.22-.05h0ZM108.37,10.59c-.2,0-.38.12-.46.31-.11.26.02.55.27.65.61.25,1.21.51,1.81.78.07.03.13.04.2.04.19,0,.37-.11.46-.3.11-.25,0-.55-.25-.66-.61-.27-1.22-.53-1.84-.79-.06-.03-.13-.04-.19-.04h0ZM103.72,8.85c-.21,0-.4.13-.47.34-.09.26.05.55.31.63.62.21,1.25.43,1.86.65.06.02.11.03.17.03.2,0,.4-.13.47-.33.09-.26-.04-.54-.29-.64-.18-.07-.36-.13-.54-.2,0,0,0,0,0,0,0,0-.02,0-.03,0,0,0,0,0,0,0,0,0-.01,0-.02,0h0s-.01,0-.02,0c0,0,0,0,0,0,0,0-.01,0-.02,0,0,0,0,0-.01,0,0,0,0,0-.01,0,0,0-.02,0-.03,0,0,0,0,0,0,0,0,0-.02,0-.02,0,0,0,0,0,0,0h-.03s0-.01,0-.01c0,0-.02,0-.03,0h0s-.02,0-.03-.01c0,0,0,0,0,0-.35-.12-.71-.25-1.06-.37-.05-.02-.11-.03-.16-.03h0ZM98.96,7.43c-.22,0-.42.15-.48.37-.07.27.09.54.36.61.64.17,1.27.34,1.9.53.05.01.09.02.14.02.22,0,.42-.14.48-.36.08-.26-.07-.54-.34-.62-.22-.06-.43-.12-.65-.19,0,0,0,0,0,0,0,0-.02,0-.03,0h0s-.01,0-.02,0h0s-.01,0-.02,0c0,0,0,0,0,0,0,0-.01,0-.02,0,0,0,0,0,0,0,0,0-.01,0-.02,0,0,0,0,0,0,0,0,0-.01,0-.02,0,0,0,0,0,0,0-.02,0-.04-.01-.06-.02,0,0-.01,0-.02,0,0,0,0,0-.01,0,0,0-.01,0-.02,0,0,0,0,0,0,0,0,0-.01,0-.02,0,0,0,0,0,0,0,0,0-.01,0-.02,0,0,0,0,0,0,0,0,0-.01,0-.02,0,0,0,0,0,0,0,0,0-.01,0-.02,0,0,0,0,0,0,0,0,0-.02,0-.02,0,0,0,0,0,0,0,0,0-.02,0-.03,0,0,0,0,0,0,0-.27-.07-.54-.15-.81-.22-.04-.01-.09-.02-.13-.02h0ZM94.12,6.34c-.24,0-.44.17-.49.41-.05.27.13.53.4.59.65.12,1.29.26,1.93.4.04,0,.07.01.11.01.23,0,.44-.16.49-.39.06-.27-.11-.54-.38-.6,0,0,0,0-.01,0,0,0-.01,0-.02,0,0,0,0,0,0,0,0,0-.01,0-.02,0,0,0,0,0,0,0,0,0-.02,0-.02,0,0,0,0,0,0,0,0,0-.02,0-.02,0,0,0,0,0,0,0,0,0-.02,0-.03,0,0,0,0,0,0,0h-.03s0,0,0,0c0,0-.02,0-.03,0h0s-.02,0-.03,0c0,0,0,0,0,0-.23-.05-.47-.1-.7-.15h0s-.02,0-.03,0c0,0,0,0,0,0h-.02s0,0,0,0c0,0-.01,0-.02,0,0,0,0,0,0,0,0,0-.01,0-.02,0,0,0,0,0,0,0h-.02s0,0-.01,0c0,0-.01,0-.02,0,0,0,0,0-.01,0h-.02s0,0-.01,0c0,0,0,0-.01,0,0,0-.01,0-.02,0,0,0,0,0,0,0-.25-.05-.5-.1-.76-.15-.03,0-.06,0-.09,0h0ZM89.21,5.56c-.25,0-.46.19-.5.44-.03.27.16.52.44.56.65.08,1.31.17,1.96.27.03,0,.05,0,.07,0,.24,0,.46-.18.49-.43.04-.27-.15-.53-.42-.57-.13-.02-.27-.04-.4-.06h0s-.02,0-.03,0c0,0,0,0,0,0,0,0-.01,0-.02,0,0,0,0,0-.01,0,0,0-.01,0-.01,0,0,0,0,0-.02,0,0,0,0,0,0,0,0,0-.02,0-.02,0,0,0,0,0,0,0-.48-.07-.97-.13-1.45-.19-.02,0-.04,0-.06,0h0ZM84.26,5.12c-.26,0-.48.21-.5.47-.02.28.2.51.47.53.66.04,1.31.08,1.97.14.01,0,.03,0,.04,0,.26,0,.48-.2.5-.46.02-.28-.18-.52-.46-.54-.41-.03-.83-.07-1.24-.09h0s-.02,0-.03,0h0s-.02,0-.03,0h0s-.02,0-.03,0h0s-.02,0-.02,0c0,0,0,0,0,0,0,0-.02,0-.02,0,0,0,0,0,0,0,0,0-.01,0-.02,0,0,0,0,0,0,0,0,0-.01,0-.02,0,0,0,0,0,0,0,0,0-.01,0-.02,0,0,0,0,0-.01,0,0,0-.01,0-.02,0,0,0,0,0-.01,0,0,0,0,0-.01,0,0,0-.01,0-.02,0,0,0,0,0-.01,0,0,0-.01,0-.02,0,0,0,0,0,0,0-.13,0-.27-.02-.41-.02,0,0-.02,0-.03,0h0ZM80,5h-.06s-.01,0-.02,0h-.03s-.01,0-.02,0h-.01s-.01,0-.02,0h-.01s-.01,0-.02,0h-.02s-.01,0-.02,0-.01,0-.02,0h-.02s0,0-.02,0c0,0,0,0-.01,0,0,0-.01,0-.02,0,0,0,0,0-.01,0,0,0-.01,0-.02,0,0,0,0,0-.01,0,0,0-.01,0-.02,0,0,0,0,0-.01,0,0,0-.01,0-.02,0,0,0,0,0-.01,0,0,0-.01,0-.02,0,0,0,0,0-.01,0,0,0-.02,0-.02,0,0,0,0,0,0,0,0,0-.02,0-.02,0,0,0,0,0,0,0,0,0-.01,0-.02,0,0,0,0,0,0,0,0,0-.02,0-.02,0,0,0,0,0,0,0,0,0-.02,0-.02,0,0,0,0,0,0,0-.01,0-.01,0-.02,0,0,0,0,0,0,0-.01,0-.02,0-.03,0,0,0,0,0,0,0-.01,0-.02,0-.03,0,0,0,0,0,0,0-.45,0-.89.01-1.33.02-.27,0-.49.24-.48.51,0,.27.23.49.5.49,0,0,0,0,.01,0,.66-.02,1.31-.03,1.97-.03h0c.43,0,.85,0,1.28.01,0,0,0,0,0,0,.27,0,.5-.22.5-.49,0-.28-.22-.5-.49-.51-.28,0-.55,0-.83,0,0,0,0,0,0,0,0,0-.01,0-.02,0h0s-.02,0-.03,0c0,0,0,0,0,0,0,0-.01,0-.02,0,0,0,0,0,0,0,0,0-.02,0-.03,0,0,0,0,0-.01,0,0,0,0,0-.01,0,0,0,0,0-.01,0,0,0-.01,0-.02,0,0,0-.01,0-.02,0h-.01s-.01,0-.02,0c0,0,0,0-.01,0,0,0-.01,0-.02,0h-.01s-.01,0-.02,0c0,0,0,0,0,0h-.02s0,0,0,0h-.03s-.02,0-.03,0h0s-.03,0-.05,0h-.03Z"/></g></svg>