<?xml version="1.0" encoding="UTF-8"?><svg id="_レイヤー_2" xmlns="http://www.w3.org/2000/svg" width="170" height="164" viewBox="0 0 170 164"><defs><style>.cls-1{fill:#00b59f;}.cls-1,.cls-2,.cls-3{stroke-width:0px;}.cls-2{fill:#0068af;}.cls-3{fill:#fff;}</style></defs><g id="_コンテンツ"><path class="cls-2" d="M1.55,119.01c.28.56.42,1.13.56,1.96.14.84,0,.7.14,1.68.14.98,0,1.26.14,2.1.14.84,1.96.98,1.96.98,0,0,.42.98.42,2.38s.42,1.26.42,2.53-1.12.84-1.82,1.54c-.7.7,0,1.4-.7,2.94-.7,1.54-1.96,2.24-2.52,2.8-.56.56.56,1.82.7,3.36.14,1.54.7.28,1.54.98.84.71,0,.71,0,1.68v3.09c0,1.54,1.4.98,2.51,1.12,1.12.14,1.68-.43,1.68-.43,0,0,1.12-.27,2.24-.55,1.12-.28.84.14,1.54.14s1.25,0,1.96.98c.7.98-.7,2.11-1.26,3.36-.56,1.26-1.4,2.1-1.68,3.08-.28.99.42,1.4,1.12,2.52.7,1.12,0,1.54.56,3.23.56,1.68.98.84.98.84,0,0,2.66,1.68,2.94,2.1.28.43,2.52.14,2.52.14,0,0,1.68.42,2.8.42s.7-.98,1.12-2.24c.43-1.26,1.41.56,1.41.56,0,0,.56,0,1.12-.42.56-.42.98-1.4,1.54-1.68.56-.28,1.95.7,1.95.7,0,0,.84,1.26,1.82,2.66.98,1.4.98-1.96,1.4-2.81.42-.84,1.4-1.82,1.4-1.82,0,0,0-1.12.42-1.82.42-.7.98-.7,1.82-1.25.84-.56.28-.84.42-1.96.14-1.12-.7-.84-1.26-1.68-.55-.84-.7-1.54-.56-2.94.14-1.4,1.4-1.96,2.52-2.8,1.12-.84.42-1.82.42-1.82l.84-.98s.56-.29,1.68-.29c1.06,0,1.13,0,1.98.13l-.45-1.25s-.28-1.12-.42-1.82c-.14-.7-1.25-.56-1.25-1.4s-.14-1.26.27-1.96c.42-.7.14-.98,1.4-1.54,1.26-.56,1.69-.69,2.24-.98.56-.28,1.26-1.4,2.38-2.94,1.12-1.55,1.68-1.26,1.82-2.38.14-1.12.27-.84.14-1.68-.14-.84-.14-1.12-.14-1.68s-.14-1.26.27-1.83c.43-.55.56-1.26.56-1.68s-.84-.42.14-1.26c.98-.84.98-1.12,1.26-1.54.28-.42.84-1.54,1.12-2.38.27-.84.84-1.13-.28-1.54-1.12-.42-2.24-1.4-1.4-2.38.84-.98,2.93-2.38,3.36-2.8.42-.42,2.23-.56,2.66-1.12.42-.56.84-1.13,1.25-1.26.43-.14,1.41-.7,1.41-.7l.42-1.54s-.14,0,.42-.7c.56-.7,1.26-1.82,1.26-1.82v-1.96s.84-.83,1.54-.42c.7.42,1.26-.28,1.68,1.12.42,1.4.56,2.38,1.4,2.52.84.14,1.12,0,1.54-1.12.42-1.12.98-2.52,1.68-1.54.7.98.14,1.4,1.54.84,1.4-.56,1.12-1.12,2.52-1.12s2.38-.7,2.38.42-.14,2.25.98,1.96c1.12-.28,1.68-.84,1.68-.84,0,0,1.12-.84,1.26-1.82.14-.98.28-2.52,1.82-1.68,1.54.84,2.1,1.82,2.94,1.82h4.9s1.96-.28,2.38.28c.42.56,1.26.28,1.26.28,0,0-.14-.98.98-1.12,1.12-.14,1.54-.42,2.52-1.26.98-.84,1.82-1.83,2.66-2.24.84-.42,0-1.12,1.96-.98,1.95.14,2.94.14,3.36.56.42.42.7,1.4,1.12.7.42-.7.7-1.26,1.12-1.82.43-.56.14-1.4,1.26-.56,1.12.84,2.38,1.26,1.96,0-.42-1.26-.43-2.1-1.4-2.66-.98-.56-.42-.56-1.39-1.12-.98-.56-.84-1.26-1.54-1.68l-.7-.42s-2.1,0-2.1-.99,1.54-2.24,2.66-3.08c1.12-.84,1.25-1.12,1.39-1.82.14-.7-.14-.7,1.26-.7s1.67.7,2.66,0c.98-.7.84-1.26,1.26-1.26s.98.28,1.26-.28c.28-.56-1.12-1.4.28-1.82,1.4-.42,1.82.56,1.95-.56.14-1.12-1.25-1.54.28-2.1,1.54-.56,2.1-.28,2.24-1.12.14-.84-.7-.84.42-1.54,1.12-.7,1.4-.56,1.54-1.4.14-.84-1.26-.98.29-1.4,1.54-.42,2.1-.7,2.1-.7,0,0-.84-.28-.28-1.68.56-1.4.56-1.54,1.96-2.94,1.4-1.4,1.82-2.8,2.94-2.53,1.12.28,1.82-.42,2.38.84.56,1.26.28,1.68,1.82,1.82,1.54.14.14.14,1.54.14s1.4.14,2.24,0c.84-.14,1.12-.14,1.96-.56.84-.42-.28-1.27,1.68-.56,1.96.71,2.66,1.13,3.22,1.41.56.27.14.14,1.12.27.98.14,2.09.14,2.09.14,0,0,1.68-.42,2.8-.84,1.12-.42.84-1.26,2.52-.56,1.68.7,1.54.56,2.66,1.12.49.24.87.51,1.24.69.02-.58.05-1.66.05-3.46,0-2.96-.79-3.94.59-5.13q1.38-1.18,2.95-1.78c1.57-.59.98,1.97,1.57-.59.59-2.57.2-3.55.2-3.55l-.59-.99-.2-1.18-1.97-.39s-1.77.39-1.38-.39c.39-.79.79-1.78,2.95-2.77,2.17-.98,2.75-.39,4.14-1.37,1.38-.99,2.36-1.38,2.36-1.38,0,0-.39-1.18,1.57-1.18h3.55s1.18-.2,1.18-1.58-.79-1.58-.59-2.56c.2-.98-.78-1.38-.78-2.37s-1.18-3.16.39-5.12c1.57-1.97,2.16-1.78,2.36-2.76.2-.98,0-.98,0-1.97v-1.98c0-.98.2-2.17-.59-2.76-.79-.59-.59-.59-1.57-1.38-.99-.79-.4-.4-2.17-1.38l-1.77-.98s-.19,1.57-2.55-1.78l-2.37-3.35s.2-.4-.2-1.78l-.39-1.38s-.59-.79,0-1.58l.59-.79s.79-1.38.99-2.17c.09-.36.42-1.15.75-1.92-1.32-.07-1.59-.01-2.23-.01-.81,0-1.11-1.22-1.51-.41-.41.81.9,1.82-.2,1.92-1.12.1-1.22,0-1.82-.1-.6-.1.41-2.13-.91-1.11-1.31,1.01-1.32,2.23-2.43,1.21-1.12-1.02-.71-1.21-1.42-1.82-.7-.61-.61-.2-1.11-.71-.51-.51-.61-1.11-.61-1.11,0,0-1.92-2.54-1.92-1.11s.1,2.02.1,2.33,1.41,0,0,.31c-1.42.3-2.53.2-2.53.2,0,0-2.53-.71-2.03.41.51,1.11.41,2.13.41,2.13,0,0-.91-.3-1.62.1-.71.4-.61,1.01-.81,1.72-.2.71.81,1.52-.6,1.01-1.42-.5-1.72-1.01-2.33-1.01s-2.73.1-2.73.1c0,0-.81.51-.4,1.42.4.91,1.11,1.32.4,1.62-.7.3-1.62.4-2.73.4s-2.02.61-3.34.61-1.72-.3-3.44.1c-1.72.41-2.23,0-3.43.41-1.22.41-3.85,1.42-3.85,1.42l-1.51,1.73-4.96,1.11s-1.92.2-1.12.81c.81.61,1.82,1.11,1.82,1.42s.91.82,0,1.11c-.91.31-.3.71-2.33.61-2.03-.1-3.03-.3-3.34-.3s-.51-.51-1.32-.1c-.81.41-.5.81-1.72.61-1.21-.2-2.83.61-2.83.61l-1.61.71s-1.42-.71-.61.71c.81,1.42,2.02,1.32,2.53,1.62.51.3.61.1,1.01.71.4.61.5,1.02.5,1.02,0,0,.41,1.21.41,2.23s1.01,2.53.1,4.56c-.91,2.02-2.43,5.77-2.43,5.77,0,0-1.11,1.11-1.72,1.52-.61.41-5.26,2.63-5.26,2.63,0,0-2.02,1.52-3.24,2.02-1.21.51-1.72.92-2.12,1.43-.41.5-.71,1.01-.71,1.01,0,0-.81-.61-1.42.1-.61.71-1.02.3-2.12.71-1.12.41-2.33.3-2.33,1.21s-.61,1.42-1.22,1.93c-.6.51-1.01.91-1.51,1.31-.51.41-.81,1.02-1.42,1.22-.6.2-.5-.1-1.11.61-.61.71-.61,1.32-1.02,1.93-.41.61-1.01,2.33-1.41,2.84-.41.5-1.42,1.92-1.92,2.43-.5.51-.91,1.11-.91,1.11,0,0-.2.2-1.22.91-1,.71-1.61,1.22-1.61,1.22,0,0,.1-1.32-.51.71-.6,2.03-1.72,3.85-2.22,4.46-.51.61-2.02,1.42-2.02,1.42,0,0-1.42.1-2.73.3-1.32.2-1.01-.2-1.82.4-.81.61-1.12.4-1.62,1.01-.5.61.3.41-.8,1.32-1.11.91-1.72,1.62-2.02,2.02-.3.41-1.31,2.64-2.93,3.15-1.62.5-2.43.81-2.93,1.31-.5.51-.71,1.21-1.42,1.52-.7.3-.8.3-1.11.5-.3.2-.4.51-.61,1.02-.2.51-.51.91-.51.91h-1.72s-.61-.71-.91.61c-.3,1.32-.1,1.73-.6,2.23s-1.62,1.22-1.62,1.22c0,0,.61-.2.81.71.2.91,1.21-.41.2.91-1.02,1.32-.81.41-1.02,1.32-.2.91-2.43,1.21-2.43,1.21,0,0-.4-.6-.81-.2-.4.4-1.31.4-1.21,1.01.1.61.7,1.02.4,1.42-.3.4-2.02,1.72-2.02,1.72l-1.72,1.92s-.6.2-1.01.4c-.41.2-.71-.61-1.32.51-.61,1.11-1.32,2.74-1.62,2.94-.3.2-1.01.81-1.01.81,0,0-.5.1-1.01.41-.51.3-1.01,1.12-1.32,1.31-.3.2-.91,0-1.21.2-.3.2-.41.81-.41.81,0,0,0,.91-.5,1.11-.51.2-.31-.71-1.22.2-.91.91-.41.1-1.01,2.43-.6,2.34-.91,2.44-1.62,2.94-.71.5-3.13,2.53-3.64,2.63-.51.1-4.15.51-5.26,1.22-1.12.71-1.52,1.31-2.33,1.21-.81-.1-1.02-.2-2.73-.2s-1.82.1-2.94-.1c-.27-.05-.54-.13-.78-.2v.06s.27.84.56,1.4Z"/><path class="cls-3" d="M112.17,27.74c-5.72,0-10.38-4.66-10.38-10.39s4.65-10.39,10.38-10.39,10.38,4.66,10.38,10.39-4.65,10.39-10.38,10.39ZM112.17,9.98c-4.06,0-7.36,3.31-7.36,7.37s3.3,7.37,7.36,7.37,7.36-3.31,7.36-7.37-3.3-7.37-7.36-7.37Z"/><g id="_アートワーク_118"><path class="cls-3" d="M112.17,46.04h0c-.78,0-1.43-.59-1.5-1.37,0-.06-.66-6.31-5.58-12.3-1-1.22-1.98-2.24-2.92-3.22-3.15-3.3-5.87-6.15-5.87-12.97,0-8.76,7.12-15.89,15.87-15.89s15.87,7.13,15.87,15.89c0,6.82-2.72,9.67-5.87,12.97-.94.99-1.92,2.01-2.92,3.22-4.92,5.98-5.57,12.24-5.58,12.3-.07.77-.72,1.37-1.5,1.37ZM112.17,3.3c-7.09,0-12.86,5.78-12.86,12.88,0,5.61,2,7.71,5.04,10.88.94.98,2,2.09,3.07,3.39,2.35,2.86,3.83,5.75,4.75,8.16.92-2.4,2.4-5.3,4.75-8.16,1.07-1.3,2.13-2.41,3.07-3.39,3.03-3.17,5.04-5.27,5.04-10.88,0-7.1-5.77-12.88-12.86-12.88ZM112.17,22.66c-3.57,0-6.47-2.91-6.47-6.48s2.9-6.48,6.47-6.48,6.47,2.91,6.47,6.48-2.9,6.48-6.47,6.48ZM112.17,12.72c-1.91,0-3.46,1.55-3.46,3.46s1.55,3.46,3.46,3.46,3.46-1.55,3.46-3.46-1.55-3.46-3.46-3.46Z"/><path class="cls-3" d="M112.17,46.04h0c-.78,0-1.43-.59-1.5-1.37,0-.06-.66-6.31-5.58-12.3-1-1.22-1.98-2.24-2.92-3.22-3.15-3.3-5.87-6.15-5.87-12.97,0-8.76,7.12-15.89,15.87-15.89s15.87,7.13,15.87,15.89c0,6.82-2.72,9.67-5.87,12.97-.94.99-1.92,2.01-2.92,3.22-4.95,6.03-5.57,12.23-5.58,12.3-.07.78-.72,1.37-1.5,1.37ZM112.17,4.31c-6.54,0-11.86,5.33-11.86,11.87,0,5.21,1.79,7.08,4.76,10.19.98,1.03,2.04,2.14,3.12,3.45,1.78,2.16,3.06,4.33,3.98,6.26,1.07-2.23,2.41-4.35,3.98-6.26,1.09-1.32,2.16-2.44,3.1-3.43,2.99-3.13,4.78-5,4.78-10.21,0-6.55-5.32-11.87-11.86-11.87ZM112.17,23.67c-4.12,0-7.47-3.36-7.47-7.49s3.35-7.49,7.47-7.49,7.47,3.36,7.47,7.49-3.35,7.49-7.47,7.49ZM112.17,12.72c-1.91,0-3.46,1.55-3.46,3.46s1.55,3.46,3.46,3.46,3.46-1.55,3.46-3.46-1.55-3.46-3.46-3.46Z"/></g><ellipse class="cls-3" cx="112.17" cy="17.35" rx="8.87" ry="8.88"/><g id="_アートワーク_118-2"><path class="cls-1" d="M112.17,1.79c-7.94,0-14.37,6.44-14.37,14.39s4.01,9.84,8.45,15.23c5.31,6.45,5.92,13.12,5.92,13.12,0,0,.61-6.66,5.92-13.12,4.44-5.4,8.45-7.12,8.45-15.23s-6.43-14.39-14.37-14.39ZM112.17,21.15c-2.74,0-4.96-2.23-4.96-4.97s2.22-4.97,4.96-4.97,4.96,2.23,4.96,4.97-2.22,4.97-4.96,4.97Z"/></g></g></svg>