<?xml version="1.0" encoding="UTF-8"?><svg id="_レイヤー_2" xmlns="http://www.w3.org/2000/svg" width="50" height="50" viewBox="0 0 50 50"><defs><style>.cls-1{fill:#00599b;}.cls-1,.cls-2{stroke-width:0px;}.cls-2{fill:#fff;}</style></defs><g id="_コンテンツ"><circle class="cls-1" cx="25" cy="25" r="25"/><path class="cls-2" d="M24.62,35.86c-1.84,0-3.48-.44-4.92-1.3-1.44-.87-2.57-2.1-3.38-3.7-.81-1.59-1.22-3.47-1.22-5.61s.41-4.05,1.22-5.64c.81-1.6,1.94-2.83,3.38-3.71,1.44-.88,3.08-1.32,4.92-1.32s3.46.44,4.89,1.32c1.42.88,2.54,2.12,3.36,3.71.82,1.6,1.23,3.48,1.23,5.64,0,1.04-.1,2.03-.3,2.94-.2.92-.5,1.76-.88,2.54l3.1,2.38-2.15,2.73-2.99-2.32c-.81.75-1.75,1.33-2.8,1.74-1.05.41-2.21.61-3.46.61ZM24.62,32.61c.68,0,1.31-.11,1.91-.33.6-.22,1.13-.53,1.59-.91l-2.73-2.15,2.06-2.64,2.58,2c.17-.48.31-1,.41-1.57.1-.56.15-1.15.15-1.77,0-1.49-.25-2.79-.74-3.9s-1.18-1.97-2.07-2.58c-.89-.61-1.94-.91-3.16-.91s-2.25.3-3.16.91c-.91.61-1.61,1.47-2.1,2.58s-.74,2.41-.74,3.9.25,2.76.74,3.87,1.19,1.97,2.1,2.58c.91.61,1.96.91,3.16.91Z"/></g></svg>