<?xml version="1.0" encoding="UTF-8"?><svg id="_レイヤー_2" xmlns="http://www.w3.org/2000/svg" width="24" height="24" viewBox="0 0 24 24"><defs><style>.cls-1{fill:#04b74d;fill-rule:evenodd;stroke-width:0px;}</style></defs><g id="_コンテンツ"><g id="_アートワーク_164"><g id="_アートワーク_164-2"><path class="cls-1" d="M24,10.22C24,4.59,18.62,0,12,0S0,4.59,0,10.22c0,5.05,4.27,9.28,10.04,10.08.39.09.92.27,1.06.62.12.32.08.82.04,1.14l-.17,1.08c-.05.32-.24,1.24,1.04.68,1.28-.57,6.91-4.27,9.43-7.31,1.74-2,2.57-4.03,2.57-6.29ZM5.01,7.5c.13,0,.23.11.23.25v4.36h2.29c.13,0,.23.11.23.24v.88c0,.14-.1.25-.23.25h-3.36c-.06,0-.12-.03-.16-.07h0s0,0,0,0h0s0,0,0,0c-.04-.04-.07-.1-.07-.17v-5.49c0-.14.1-.25.23-.25h.84ZM20,7.5c.13,0,.23.11.23.25v.88c0,.14-.1.25-.23.25h-2.29v.93h2.29c.13,0,.23.11.23.25v.88c0,.14-.1.25-.23.25h-2.29v.93h2.29c.13,0,.23.11.23.24v.88c0,.14-.1.25-.23.25h-3.36c-.06,0-.12-.03-.16-.07h0s0,0,0,0c-.04-.04-.07-.1-.07-.17v-5.49c0-.07.02-.12.07-.17h0s0,0,0,0c.04-.04.1-.07.16-.07h3.36ZM9.56,7.5c.13,0,.23.11.23.24v5.49c0,.13-.1.24-.23.24h-.84c-.13,0-.23-.11-.23-.24v-5.49c0-.14.1-.24.23-.24h.84ZM11.69,7.5h.02s.01,0,.01,0h.01s.01,0,.01,0h0s.01,0,.01,0h0s.01,0,.01,0h0s.01.01.01.01h0s.01.01.01.01h0s.01.02.01.02h0s.01.02.01.02h0s.02.03.02.03l2.4,3.4v-3.26c0-.14.1-.24.23-.24h.84c.13,0,.23.11.23.24v5.49c0,.13-.1.24-.23.24h-.9s0,0,0,0h-.02s0,0,0,0h-.01s-.01-.01-.01-.01h0s-.01-.01-.01-.01h0s-.06-.06-.06-.06l-2.4-3.4v3.26c0,.13-.1.24-.23.24h-.84c-.13,0-.23-.11-.23-.24v-5.49c0-.14.1-.24.23-.24h.84Z"/></g></g></g></svg>