<?xml version="1.0" encoding="UTF-8"?><svg id="_レイヤー_2" xmlns="http://www.w3.org/2000/svg" width="70" height="40" viewBox="0 0 70 40"><defs><style>.cls-1{fill:#78c4ea;stroke-width:0px;}</style></defs><g id="_コンテンツ"><path class="cls-1" d="M63.19,6.48l-3.83,2.17c-.23.15-.52.16-.76.03l-3.22-1.8c-.24-.13-.38-.39-.37-.66l-.1-4.34c.03-.63-.44-1.18-1.08-1.26l-2.9-.35c-.64-.08-1.23.34-1.35.97l-1.16,4.18c-.05.27-.25.48-.52.55l-3.57.98c-.26.07-.55,0-.73-.21l-3.19-3.02c-.43-.47-1.16-.53-1.66-.14l-2.31,1.79c-.5.39-.62,1.1-.27,1.63l2.19,3.8c.15.23.16.52.03.75l-1.82,3.2c-.13.24-.39.38-.67.37l-4.38.1c-.64-.03-1.19.44-1.27,1.07l-.35,2.88c-.08.63.35,1.21.98,1.34l4.22,1.15c.27.05.48.25.56.51l.99,3.53c.08.26,0,.54-.21.72l-3.05,3.16c-.47.43-.53,1.15-.14,1.65l1.8,2.28c.39.5,1.11.62,1.64.26l3.84-2.17c.23-.15.52-.16.76-.03l3.22,1.8c.24.13.38.39.37.66l.11,4.34c-.03.63.44,1.18,1.08,1.26l2.9.35c.64.08,1.23-.35,1.35-.97l1.16-4.18c.06-.26.25-.48.52-.55l3.57-.98c.26-.07.55,0,.73.21l3.19,3.02c.43.47,1.16.53,1.66.14l2.31-1.79c.5-.39.62-1.1.27-1.63l-2.19-3.8c-.15-.23-.16-.52-.03-.75l1.82-3.19c.13-.24.39-.38.66-.37l4.38-.1c.64.03,1.2-.44,1.27-1.07l.36-2.88c.08-.63-.35-1.21-.98-1.34l-4.23-1.15c-.27-.05-.48-.25-.56-.51l-.99-3.53c-.07-.26,0-.54.21-.72l3.05-3.16c.47-.43.53-1.15.14-1.65l-1.8-2.28c-.4-.5-1.11-.61-1.65-.26ZM56.69,20.95c-.22,1.79-1.13,3.38-2.56,4.49-1.43,1.11-3.21,1.6-5.01,1.38-1.8-.22-3.41-1.12-4.53-2.54s-1.61-3.18-1.39-4.97c.22-1.79,1.13-3.38,2.56-4.49s3.21-1.6,5.01-1.38c1.8.22,3.41,1.12,4.53,2.54,1.12,1.42,1.61,3.18,1.4,4.97Z"/><path class="cls-1" d="M29.51,22.77c.27-.42.16-.98-.24-1.27l-2.64-2.22c-.17-.13-.26-.34-.22-.55l.49-2.84c.04-.21.19-.38.39-.44l3.2-1.23c.48-.15.76-.64.65-1.12l-.51-2.22c-.11-.49-.58-.8-1.08-.73l-3.42.27c-.21.03-.43-.06-.55-.23l-1.68-2.35c-.12-.17-.14-.4-.04-.59l1.4-3.14c.23-.44.08-.99-.34-1.25l-1.94-1.21c-.43-.26-.99-.16-1.29.24l-2.25,2.61c-.13.17-.34.26-.55.22l-2.86-.48c-.21-.04-.39-.18-.45-.39l-1.24-3.17c-.15-.48-.64-.76-1.13-.65l-2.24.5c-.49.11-.81.58-.74,1.07l.27,3.39c.03.21-.06.42-.23.54l-2.37,1.66c-.17.12-.41.14-.6.04l-3.17-1.39c-.45-.23-.99-.08-1.26.34l-1.22,1.92c-.27.42-.16.98.24,1.27l2.64,2.23c.17.13.26.34.22.55l-.49,2.84c-.04.21-.19.38-.39.45l-3.2,1.23c-.48.15-.76.64-.65,1.12l.51,2.21c.11.49.58.81,1.08.73l3.42-.27c.21-.03.42.06.55.23l1.68,2.35c.13.17.14.4.04.59l-1.4,3.14c-.23.44-.08.99.34,1.25l1.94,1.21c.43.27.99.16,1.28-.24l2.25-2.61c.13-.17.34-.25.55-.22l2.86.48c.21.04.39.19.45.39l1.24,3.17c.15.47.64.76,1.13.65l2.24-.51c.49-.11.81-.58.74-1.07l-.27-3.39c-.03-.21.06-.42.24-.54l2.37-1.66c.18-.12.41-.14.6-.04l3.17,1.39c.45.23,1,.09,1.26-.33l1.22-1.93ZM20.1,18.25c-.76,1.19-1.94,2.03-3.33,2.34-1.39.31-2.82.07-4.02-.68-1.21-.75-2.04-1.92-2.36-3.3-.32-1.38-.07-2.79.69-3.99.76-1.19,1.94-2.03,3.33-2.34,1.39-.31,2.82-.07,4.02.68,1.21.75,2.04,1.92,2.36,3.3.31,1.38.07,2.79-.69,3.99Z"/></g></svg>