<?xml version="1.0" encoding="UTF-8"?><svg id="_レイヤー_2" xmlns="http://www.w3.org/2000/svg" width="158" height="108" viewBox="0 0 158 108"><defs><style>.cls-1{fill:#e3fcf7;stroke-width:0px;}</style></defs><g id="_コンテンツ"><path class="cls-1" d="M73.62,54.11c-.21,18.32-3.38,31.89-9.5,40.69-6.13,8.8-15.45,13.2-27.99,13.2s-21.26-4.54-27.32-13.63C2.74,85.28-.19,71.86,0,54.11.22,35.59,3.38,21.95,9.48,13.17,15.58,4.39,24.87,0,37.36,0s21.28,4.59,27.39,13.78c6.11,9.19,9.07,22.63,8.87,40.33ZM22.12,54.11c-.15,12.87.87,22.09,3.03,27.66,2.17,5.57,5.89,8.36,11.18,8.36s8.96-2.82,11.33-8.47c2.37-5.64,3.63-14.83,3.77-27.56.15-12.87-.91-22.11-3.18-27.74-2.27-5.62-5.97-8.43-11.1-8.43s-9.01,2.81-11.33,8.43c-2.32,5.62-3.55,14.87-3.7,27.74Z"/><path class="cls-1" d="M157.79,106.56h-73.61l.18-15.43,26.73-26.62c7.92-7.99,13.09-13.53,15.53-16.61,2.44-3.09,4.2-5.94,5.28-8.58,1.09-2.63,1.65-5.36,1.68-8.18.05-4.21-1.08-7.34-3.39-9.4s-5.4-3.09-9.29-3.09c-4.08,0-8.05.93-11.92,2.8-3.86,1.86-7.9,4.52-12.12,7.96l-11.94-14.28c5.24-4.4,9.57-7.51,13-9.33,3.43-1.82,7.17-3.22,11.21-4.2,4.04-.98,8.56-1.47,13.56-1.47,6.58,0,12.37,1.2,17.39,3.59,5.01,2.39,8.89,5.74,11.63,10.05,2.73,4.31,4.07,9.23,4.01,14.78-.05,4.83-.96,9.37-2.71,13.6-1.75,4.23-4.44,8.58-8.07,13.03-3.63,4.45-10,10.79-19.12,19.02l-13.68,12.7v1s45.87,0,45.87,0l-.21,18.66Z"/></g></svg>