<?xml version="1.0" encoding="UTF-8"?><svg id="_レイヤー_2" xmlns="http://www.w3.org/2000/svg" width="40" height="41" viewBox="0 0 40 41"><defs><style>.cls-1{fill:#78c4ea;stroke-width:0px;}</style></defs><g id="_コンテンツ"><path class="cls-1" d="M7.77,11.2l6.74,6.71c1.16-1.1,2.16-2.06,2.91-2.78l-6.8-6.77-.83-3.66L3.72,1.04l-1.67,1.65-1.67,1.65,3.69,6.02,3.69.83Z"/><path class="cls-1" d="M28.26,22.13l9.97,9.86c1.84,1.82,1.84,4.78,0,6.6-1.84,1.82-4.82,1.82-6.66,0l-9.97-9.86,6.66-6.6Z"/><path class="cls-1" d="M36.46,16.29c3.43-3.09,4.01-6.61,3.24-9.57-.02-.24-.08-.43-.29-.58l-.69-.56c-.12-.11-.28-.17-.44-.15-.16.02-.31.1-.41.23l-3.97,5.13c-.11.15-.29.24-.48.23l-1.44.11c-.12,0-.24-.05-.34-.13l-2.79-2.34c-.11-.09-.19-.22-.21-.37l-.17-1.3c-.02-.14.02-.29.1-.41l3.72-5.02c.17-.23.14-.55-.07-.74l-.9-.7c-.18-.16-.38-.14-.65-.09-2.57.5-6.96,2.97-8.07,6.39-.98,3-.64,5.12-.64,5.12,0,1.69-.56,3.32-1.25,4.01L1.32,34.03s-.07.07-.11.11c-1.6,1.59-1.6,4.17-.05,5.7,1.55,1.54,4.19,1.58,5.79-.01.07-.07.15-.15.21-.23l18.7-20.05c2.3-2.03,6.85.13,10.61-3.25Z"/></g></svg>