<?xml version="1.0" encoding="UTF-8"?><svg id="_レイヤー_2" xmlns="http://www.w3.org/2000/svg" width="44" height="48" viewBox="0 0 44 48"><defs><style>.cls-1{fill:#78c4ea;stroke-width:0px;}</style></defs><g id="_コンテンツ"><path class="cls-1" d="M43.21,26.22c-1.06-1.15-3.04-.91-4.37.07-1.21,1-9.48,6.41-9.48,6.41h-10.05l-.03.02c-.53-.02-.94-.46-.93-.99.02-.53.46-.94.99-.92l-.03-.02h7.41c1.49,0,2.69-1.2,2.69-2.68s-1.21-2.68-2.69-2.68h-10.77c-6.73,0-8.87,2.79-11.22,5.13l-4.28,3.71c-.28.24-.44.59-.44.95v12.34c0,.16.1.31.25.38.15.07.33.04.45-.06l8.26-7.05c.29-.25.68-.35,1.06-.28l12.88,2.33c.9.16,1.82-.04,2.57-.57,0,0,16.44-11.37,17.65-12.37,1.16-1.06,1.14-2.59.08-3.74Z"/><path class="cls-1" d="M18.29,20.47c2.03,1.38,4.58,2.4,4.58,2.4.23.08.6.14.72.14s.49-.07.72-.14c0,0,2.55-1.01,4.58-2.4,3.09-2.09,8.1-6.21,8.1-12S33.66-.07,29.98,0c-2.81.05-4.46,1.7-5.58,3.32-.2.3-.51.49-.81.5-.3,0-.61-.2-.81-.5C21.67,1.7,20.02.05,17.21,0c-3.68-.08-7.02,2.59-7.02,8.47s5.01,9.91,8.1,12ZM15.53,3.68c.28-.34.63-.64,1.04-.88.4-.24.92-.11,1.16.28.24.4.11.91-.28,1.15-.26.16-.46.33-.6.5-.29.36-.82.41-1.19.12-.36-.29-.41-.82-.12-1.18ZM13.56,9.02c0-.56.06-1.08.18-1.56.12-.45.58-.72,1.03-.6.45.12.72.57.6,1.02-.08.31-.13.69-.13,1.13s.05.95.14,1.52c.15.91.54,1.76,1.11,2.55.27.38.18.9-.2,1.17-.38.27-.9.18-1.18-.2-.69-.96-1.2-2.04-1.4-3.24-.11-.64-.16-1.24-.16-1.8Z"/></g></svg>