<?xml version="1.0" encoding="UTF-8"?><svg id="_レイヤー_2" xmlns="http://www.w3.org/2000/svg" width="140" height="108" viewBox="0 0 140 108"><defs><style>.cls-1{fill:#e9f8ff;stroke-width:0px;}</style></defs><g id="_コンテンツ"><path class="cls-1" d="M73.41,54.11c-.21,18.32-3.37,31.89-9.47,40.69-6.11,8.8-15.41,13.2-27.91,13.2s-21.19-4.54-27.24-13.63C2.73,85.28-.19,71.86,0,54.11.22,35.59,3.37,21.95,9.45,13.17,15.53,4.39,24.8,0,37.25,0s21.22,4.59,27.31,13.78c6.1,9.19,9.04,22.63,8.84,40.33ZM22.06,54.11c-.15,12.87.86,22.09,3.03,27.66,2.16,5.57,5.88,8.36,11.14,8.36s8.94-2.82,11.3-8.47c2.36-5.64,3.62-14.83,3.76-27.56.15-12.87-.91-22.11-3.17-27.74-2.26-5.62-5.95-8.43-11.07-8.43s-8.99,2.81-11.3,8.43c-2.31,5.62-3.54,14.87-3.69,27.74Z"/><path class="cls-1" d="M138.81,106.56h-22.19l.69-60.71.33-9.97.48-10.91c-3.73,3.68-6.32,6.1-7.77,7.25l-12.17,9.69-10.55-13.35L121.76,1.65h18.24l-1.19,104.91Z"/></g></svg>