<?xml version="1.0" encoding="UTF-8"?><svg id="_レイヤー_2" xmlns="http://www.w3.org/2000/svg" width="190" height="55" viewBox="0 0 190 55"><defs><style>.cls-1{fill:#b9efe5;}.cls-1,.cls-2,.cls-3,.cls-4{stroke-width:0px;}.cls-2{fill:#7cd6c4;}.cls-3{fill:#00b59f;}.cls-4{fill:#005a91;}</style></defs><g id="_ヘッダー"><path class="cls-4" d="M20.15,27.52l-3.08,5.7c-1.7-1.52-3.38-3.42-5.03-5.7-1.65,3.04-3.96,5.65-6.93,7.83L.88,29.99c1.98-1.55,3.47-2.95,4.46-4.22,1.35-1.77,2.22-3.83,2.63-6.16H1.64v-6.23h2.97l-3.88-3.65C2.68,6.72,4.04,3.54,4.8.19l6.32.76c-.23.89-.47,1.77-.72,2.66h8.45v6.01h-4.04v3.76h4.49v6.23h-4.68c-.05.3-.1.63-.15.99,1.6,2.38,3.49,4.55,5.67,6.5V2.59h15.77v31.78h-6.47v-2.74h-2.89v2.74h-6.4v-6.84ZM8.53,13.38v-3.76h-.91c-.69,1.5-1.36,2.75-2.02,3.76h2.93ZM29.44,25.2V9.01h-2.89v16.19h2.89Z"/><path class="cls-4" d="M57.93,32.96c-6.96.86-12.8,1.41-17.52,1.63l-1.07-5.93c2.03-.05,4.28-.13,6.74-.23v-2.2h-5.67v-5.28h5.67v-1.52h-5.67V1.03h17.1v18.4h-5.29v1.52h5.18v5.28h-5.18v1.86c1.57-.13,3.48-.29,5.71-.49v5.36ZM46.61,8.36v-1.79h-1.56v1.79h1.56ZM46.61,14.33v-1.75h-1.56v1.75h1.56ZM53.24,8.36v-1.79h-1.56v1.79h1.56ZM53.24,14.33v-1.75h-1.56v1.75h1.56ZM74.91,19.73c-.3,1.75-.79,3.89-1.45,6.42l-5.03-.91c.71-2.51,1.23-4.57,1.56-6.2h-1.71v10.38c0,2.13-.32,3.55-.97,4.26-.65.71-1.86,1.06-3.64,1.06h-3.54l-1.75-5.78h2.51c.48,0,.81-.08.97-.25.16-.16.25-.56.25-1.2v-8.48h-3.85v-5.97h3.77c-.76-.79-1.8-1.84-3.12-3.16l4.68-3c.46.46,1.19,1.19,2.21,2.2.61-.89,1.08-1.63,1.41-2.24h-8.57V1.22h14.78v6.08c-.97,1.67-2.25,3.59-3.85,5.74l.04.04h5.29v6.65Z"/><path class="cls-4" d="M93.38,23.19c-.25,6.03-4.05,10.17-11.39,12.43l-5.22-5.02c3.28-.96,5.61-1.94,7.01-2.93,1.6-1.11,2.54-2.61,2.82-4.49h-4.91V1.06h26.96v22.12h-6.17v4.75c0,.46.06.74.17.84.11.1.41.15.89.15h1.14c.66,0,1.07-.23,1.24-.68.16-.46.25-1.62.25-3.5l6.28,1.71c0,3.52-.43,5.79-1.28,6.8-.85,1.01-2.75,1.52-5.69,1.52h-5.64c-1.55,0-2.6-.23-3.16-.7-.56-.47-.84-1.4-.84-2.79v-8.1h-2.48ZM102.03,7.57v-1.25h-13.71v1.25h13.71ZM102.03,12.89v-1.25h-13.71v1.25h13.71ZM102.03,18.25v-1.29h-13.71v1.29h13.71Z"/><path class="cls-4" d="M150.28,15.66h-5.79v-5.51h-8.19v6.92h-6.36v-6.92h-7.84v5.51h-5.83V5.74h13.67v-.91h-11.23V.8h29.25v4.03h-11.65v.91h13.98v9.92ZM150.77,27.87c0,3.22-.43,5.26-1.29,6.12-.69.68-2.3,1.03-4.84,1.03h-10.24c-1.78,0-2.96-.23-3.56-.7-.6-.47-.9-1.41-.9-2.83v-1.71h-5.06v2.17h-6.25v-14.1h29.44v9.47l2.7.57ZM129.1,13.57h-6.09v-2.55h6.09v2.55ZM129.1,16.95h-6.09v-2.51h6.09v2.51ZM129.94,22.12v-1.06h-5.06v1.06h5.06ZM129.94,25.85v-1.06h-5.06v1.06h5.06ZM141.82,22.12v-1.06h-5.56v1.06h5.56ZM141.82,25.85v-1.06h-5.56v1.06h5.56ZM144.41,29.5h-8.15v.68c0,.25.04.4.11.44.08.04.28.06.61.06h5.64c.71,0,1.17-.06,1.39-.19.22-.13.35-.46.4-.99ZM143.58,13.57h-6.36v-2.55h6.36v2.55ZM143.58,16.95h-6.36v-2.51h6.36v2.51Z"/><path class="cls-4" d="M168.44.49c-.33.68-.66,1.32-.99,1.9h20.53v5.25h-23.88c-.18.23-.44.58-.8,1.06h22.58v4.03h-23.57v-2.85c-1.24,1.44-2.46,2.65-3.66,3.61l-5.9-3.46c4.04-3.07,6.92-6.41,8.64-10.04l7.05.49ZM174.77,20.22c-.74,1.82-1.66,3.52-2.78,5.09,1.93,1.24,3.71,2.48,5.33,3.73l-5.26,4.22c-1.22-1.09-2.62-2.2-4.19-3.35-2.23,1.98-4.89,3.66-7.96,5.06l-6.02-4.41c3.25-1.01,6.07-2.45,8.45-4.3-1.96-1.17-3.78-2.17-5.48-3l4.91-3.65c1.4.63,2.94,1.42,4.65,2.36.69-.99,1.22-1.98,1.6-2.97h-12.45v-5.17h27.88c.18,9.02.69,13.53,1.52,13.53.46,0,1.27-1.48,2.44-4.45l2.59,7.79c-1.9,2.86-3.97,4.3-6.21,4.3-2.41,0-4.15-1.48-5.22-4.45-.89-2.51-1.35-6.36-1.37-11.56h-6.44l4,1.22Z"/><path class="cls-3" d="M40.38,52.7c-2.21,0-3.31-1.21-3.31-3.63,0-1.2.3-2.12.9-2.76.6-.63,1.46-.95,2.58-.95.82,0,1.56.16,2.21.48l-.57,1.49c-.3-.12-.59-.22-.85-.3-.26-.08-.52-.12-.79-.12-1.01,0-1.51.71-1.51,2.14s.5,2.08,1.51,2.08c.37,0,.72-.05,1.03-.15.32-.1.63-.25.95-.47v1.65c-.31.2-.63.34-.95.41-.32.08-.72.11-1.21.11Z"/><path class="cls-3" d="M53.31,52.57h-1.93v-4.13c0-1.02-.38-1.53-1.14-1.53-.54,0-.93.18-1.17.55-.24.37-.36.96-.36,1.78v3.33h-1.93v-9.85h1.93v2.01c0,.16-.01.52-.04,1.1l-.04.57h.1c.43-.69,1.12-1.04,2.05-1.04.83,0,1.46.22,1.9.67.43.45.65,1.09.65,1.92v4.61Z"/><path class="cls-3" d="M57.82,43.67c0-.63.35-.94,1.05-.94s1.05.31,1.05.94c0,.3-.09.53-.26.7-.18.17-.44.25-.79.25-.7,0-1.05-.32-1.05-.95ZM59.83,52.57h-1.93v-7.07h1.93v7.07Z"/><path class="cls-3" d="M71,52.57h-1.93v-4.13c0-.51-.09-.89-.27-1.15-.18-.25-.47-.38-.87-.38-.54,0-.93.18-1.17.54-.24.36-.36.96-.36,1.79v3.33h-1.93v-7.07h1.48l.26.9h.11c.22-.34.51-.6.89-.78.38-.17.81-.26,1.29-.26.82,0,1.45.22,1.88.67.43.45.64,1.09.64,1.93v4.61Z"/><path class="cls-3" d="M82.03,49.02c0,1.15-.3,2.05-.91,2.7s-1.46.97-2.54.97c-.68,0-1.28-.15-1.8-.45-.52-.3-.92-.72-1.2-1.28s-.42-1.21-.42-1.95c0-1.16.3-2.05.91-2.7s1.45-.96,2.55-.96c.68,0,1.28.15,1.8.44.52.3.92.72,1.2,1.27.28.55.42,1.2.42,1.94ZM77.13,49.02c0,.7.11,1.23.35,1.59.23.36.61.54,1.13.54s.89-.18,1.11-.53c.23-.36.34-.89.34-1.59s-.11-1.23-.34-1.58c-.23-.35-.6-.53-1.12-.53s-.89.17-1.12.52c-.23.35-.34.87-.34,1.58Z"/><path class="cls-3" d="M92.57,52.57h-1.93v-4.13c0-.51-.09-.89-.26-1.15-.17-.25-.44-.38-.81-.38-.49,0-.85.18-1.08.54-.22.36-.34.96-.34,1.79v3.33h-1.93v-7.07h1.48l.26.9h.11c.19-.32.46-.58.82-.76.36-.18.77-.28,1.24-.28,1.06,0,1.78.35,2.16,1.04h.17c.19-.33.47-.58.84-.77.37-.18.79-.27,1.25-.27.8,0,1.41.21,1.82.62.41.41.62,1.07.62,1.98v4.61h-1.94v-4.13c0-.51-.09-.89-.26-1.15-.17-.25-.44-.38-.81-.38-.47,0-.83.17-1.06.51-.23.34-.35.87-.35,1.61v3.55Z"/><path class="cls-3" d="M101.49,43.67c0-.63.35-.94,1.05-.94s1.05.31,1.05.94c0,.3-.09.53-.26.7-.18.17-.44.25-.79.25-.7,0-1.05-.32-1.05-.95ZM103.5,52.57h-1.93v-7.07h1.93v7.07Z"/><path class="cls-3" d="M110.37,52.7c-.83,0-1.49-.32-1.96-.97-.48-.65-.71-1.54-.71-2.68s.24-2.06.73-2.71c.48-.65,1.15-.97,2-.97.89,0,1.57.35,2.04,1.04h.06c-.1-.53-.15-1-.15-1.41v-2.27h1.94v9.85h-1.48l-.37-.92h-.08c-.44.7-1.11,1.04-2.01,1.04ZM111.05,51.16c.49,0,.86-.14,1.09-.43.23-.29.36-.77.38-1.46v-.21c0-.76-.12-1.3-.35-1.63-.23-.33-.62-.49-1.14-.49-.43,0-.77.18-1,.55s-.36.9-.36,1.59.12,1.22.36,1.57c.24.35.59.52,1.03.52Z"/><path class="cls-3" d="M122.15,52.7c-1.14,0-2.03-.31-2.68-.94s-.96-1.52-.96-2.67.3-2.1.89-2.75c.59-.65,1.41-.97,2.46-.97s1.78.28,2.34.85.84,1.36.84,2.36v.94h-4.57c.02.55.18.98.49,1.28.3.31.73.46,1.28.46.43,0,.83-.04,1.21-.13.38-.09.78-.23,1.19-.42v1.49c-.34.17-.7.29-1.08.38-.38.08-.85.12-1.41.12ZM121.88,46.74c-.41,0-.73.13-.96.39-.23.26-.37.63-.4,1.1h2.71c0-.48-.13-.84-.37-1.1-.24-.26-.57-.39-.98-.39Z"/><path class="cls-3" d="M135.75,52.57h-1.93v-4.13c0-.51-.09-.89-.27-1.15-.18-.25-.47-.38-.87-.38-.54,0-.93.18-1.17.54-.24.36-.36.96-.36,1.79v3.33h-1.93v-7.07h1.48l.26.9h.11c.22-.34.51-.6.89-.78.38-.17.81-.26,1.29-.26.82,0,1.45.22,1.88.67.43.45.64,1.09.64,1.93v4.61Z"/><path class="cls-3" d="M142.19,48.72l.84-1.08,1.98-2.15h2.18l-2.81,3.07,2.99,4.01h-2.23l-2.04-2.87-.83.66v2.2h-1.93v-9.85h1.93v4.39l-.1,1.61h.02Z"/><path class="cls-3" d="M150.9,43.67c0-.63.35-.94,1.05-.94s1.05.31,1.05.94c0,.3-.09.53-.26.7-.18.17-.44.25-.79.25-.7,0-1.05-.32-1.05-.95ZM152.92,52.57h-1.93v-7.07h1.93v7.07Z"/><polygon class="cls-2" points="12.94 49.6 7.59 55 12.15 55 17.5 49.6 12.15 44.2 7.59 44.2 12.94 49.6"/><polygon class="cls-3" points="20.53 49.6 15.19 55 19.75 55 25.09 49.6 19.75 44.2 15.19 44.2 20.53 49.6"/><polygon class="cls-1" points="5.34 49.6 0 55 4.56 55 9.9 49.6 4.56 44.2 0 44.2 5.34 49.6"/><polygon class="cls-2" points="175.06 49.6 169.71 55 174.28 55 179.62 49.6 174.28 44.2 169.71 44.2 175.06 49.6"/><polygon class="cls-3" points="182.65 49.6 177.31 55 181.87 55 187.21 49.6 181.87 44.2 177.31 44.2 182.65 49.6"/><polygon class="cls-1" points="167.46 49.6 162.12 55 166.68 55 172.03 49.6 166.68 44.2 162.12 44.2 167.46 49.6"/></g></svg>