<?xml version="1.0" encoding="UTF-8"?><svg id="_レイヤー_2" xmlns="http://www.w3.org/2000/svg" width="40" height="40" xmlns:xlink="http://www.w3.org/1999/xlink" viewBox="0 0 40 40"><defs><style>.cls-1{fill:#d53174;}.cls-1,.cls-2,.cls-3{stroke-width:0px;}.cls-2{fill:none;}.cls-4{clip-path:url(#clippath);}.cls-3{fill:#fff;}</style><clipPath id="clippath"><rect id="SVGID" class="cls-2" x="9.08" y="9.08" width="21.84" height="21.84"/></clipPath></defs><g id="_フッター"><rect class="cls-1" width="40" height="40" rx="8.67" ry="8.67"/><g class="cls-4"><path class="cls-3" d="M20,11.05c2.92,0,3.26.01,4.41.06,1.06.05,1.64.23,2.03.38.51.2.87.43,1.26.82.38.38.62.75.82,1.25.15.38.33.96.38,2.03.05,1.15.06,1.5.06,4.41s-.01,3.26-.06,4.41c-.05,1.06-.23,1.64-.38,2.03-.2.51-.43.87-.82,1.26-.38.38-.75.62-1.26.82-.39.15-.96.33-2.03.38-1.15.05-1.5.06-4.41.06s-3.26-.01-4.41-.06c-1.06-.05-1.64-.23-2.03-.38-.51-.2-.87-.43-1.26-.82-.38-.38-.62-.75-.82-1.26-.15-.38-.33-.96-.38-2.03-.05-1.15-.06-1.5-.06-4.41s.01-3.26.06-4.41c.05-1.07.23-1.64.38-2.03.2-.51.43-.87.82-1.25.38-.38.75-.62,1.26-.82.39-.15.96-.33,2.03-.38,1.15-.05,1.5-.06,4.41-.06M20,9.08c-2.96,0-3.34.01-4.5.07-1.16.05-1.96.24-2.65.51-.72.28-1.33.65-1.93,1.26-.61.61-.98,1.22-1.26,1.93-.27.69-.45,1.49-.51,2.65-.05,1.16-.07,1.54-.07,4.5s.01,3.34.07,4.5c.05,1.16.24,1.96.51,2.65.28.72.65,1.33,1.26,1.93.61.61,1.22.98,1.93,1.26.69.27,1.49.45,2.65.51,1.16.05,1.54.07,4.5.07s3.34-.01,4.5-.07c1.16-.05,1.96-.24,2.65-.51.72-.28,1.33-.65,1.93-1.26.61-.61.98-1.22,1.26-1.93.27-.7.45-1.49.51-2.65.05-1.16.07-1.54.07-4.5s-.01-3.34-.07-4.5c-.05-1.16-.24-1.96-.51-2.65-.28-.72-.65-1.33-1.26-1.93-.61-.61-1.22-.98-1.93-1.26-.69-.27-1.49-.45-2.65-.51-1.16-.05-1.54-.07-4.5-.07"/><path class="cls-3" d="M20,14.39c-3.1,0-5.61,2.51-5.61,5.61s2.51,5.61,5.61,5.61,5.61-2.51,5.61-5.61-2.51-5.61-5.61-5.61M20,23.64c-2.01,0-3.64-1.63-3.64-3.64s1.63-3.64,3.64-3.64,3.64,1.63,3.64,3.64-1.63,3.64-3.64,3.64"/><path class="cls-3" d="M27.14,14.17c0,.72-.59,1.31-1.31,1.31s-1.31-.59-1.31-1.31.59-1.31,1.31-1.31,1.31.59,1.31,1.31"/></g></g></svg>