<?xml version="1.0" encoding="UTF-8"?><svg id="_レイヤー_2" xmlns="http://www.w3.org/2000/svg" width="40" height="40" viewBox="0 0 40 40"><defs><style>.cls-1{fill:#06c755;}.cls-1,.cls-2{stroke-width:0px;}.cls-2{fill:#fff;}</style></defs><g id="_フッター"><rect class="cls-1" width="40" height="40" rx="9.02" ry="9.02"/><path class="cls-2" d="M33.33,18.12c0-5.97-5.98-10.82-13.34-10.82s-13.34,4.86-13.34,10.82c0,5.35,4.74,9.83,11.15,10.68.43.09,1.03.29,1.17.66.13.34.09.87.04,1.21,0,0-.16.94-.19,1.14-.06.34-.27,1.32,1.16.72,1.42-.6,7.68-4.52,10.48-7.74h0c1.93-2.12,2.86-4.27,2.86-6.66Z"/><path class="cls-1" d="M28.9,21.56h-3.75c-.14,0-.25-.11-.25-.25h0v-5.81h0c0-.15.11-.26.25-.26h3.75c.14,0,.25.11.25.25v.95c0,.14-.11.25-.25.25h-2.55v.98h2.55c.14,0,.25.11.25.25v.95c0,.14-.11.25-.25.25h-2.55v.98h2.55c.14,0,.25.11.25.25v.95c0,.14-.11.25-.25.25Z"/><path class="cls-1" d="M15.04,21.56c.14,0,.25-.11.25-.25v-.95c0-.14-.11-.25-.25-.25h-2.55v-4.62c0-.14-.11-.25-.25-.25h-.95c-.14,0-.25.11-.25.25v5.82h0c0,.15.11.26.25.26h3.75Z"/><rect class="cls-1" x="16.09" y="15.23" width="1.46" height="6.33" rx=".25" ry=".25"/><path class="cls-1" d="M23.73,15.23h-.95c-.14,0-.25.11-.25.25v3.46l-2.66-3.6s-.01-.02-.02-.03c0,0,0,0,0,0,0,0,0-.01-.02-.02,0,0,0,0,0,0,0,0,0,0-.01-.01,0,0,0,0,0,0,0,0,0,0-.01,0,0,0,0,0,0,0,0,0,0,0-.01,0,0,0,0,0,0,0,0,0,0,0-.01,0,0,0,0,0,0,0,0,0-.01,0-.02,0,0,0,0,0,0,0,0,0-.01,0-.02,0,0,0,0,0-.01,0,0,0,0,0-.01,0,0,0,0,0-.01,0,0,0,0,0,0,0h-.94c-.14,0-.25.11-.25.25v5.82c0,.14.11.25.25.25h.95c.14,0,.25-.11.25-.25v-3.46l2.67,3.6s.04.05.07.06c0,0,0,0,0,0,0,0,.01,0,.02,0,0,0,0,0,0,0,0,0,0,0,.01,0,0,0,0,0,.01,0,0,0,0,0,0,0,0,0,.01,0,.02,0,0,0,0,0,0,0,.02,0,.04,0,.07,0h.94c.14,0,.25-.11.25-.25v-5.82c0-.14-.11-.25-.25-.25Z"/></g></svg>