<?xml version="1.0" encoding="UTF-8"?><svg id="_レイヤー_2" xmlns="http://www.w3.org/2000/svg" width="280" height="80" viewBox="0 0 280 80"><defs><style>.cls-1{fill:none;stroke:#000;stroke-miterlimit:10;stroke-width:2px;}.cls-2{fill:#000;}.cls-2,.cls-3{stroke-width:0px;}.cls-3{fill:#ffb8b8;}</style></defs><g id="_コンテンツ"><rect class="cls-3" width="280" height="80" rx="10" ry="10"/><polyline class="cls-1" points="219 40 219 47 249 47 249 40"/><line class="cls-1" x1="234" y1="41" x2="234" y2="29"/><polyline class="cls-1" points="227.19 32.84 233.94 39.59 240.69 32.84"/><path class="cls-2" d="M32.22,32.21h3.89c2.62,0,4.64.93,4.64,3.73s-2.03,3.92-4.58,3.92h-1.58v4.21h-2.37v-11.86ZM36.02,37.99c1.63,0,2.42-.69,2.42-2.05s-.86-1.84-2.5-1.84h-1.34v3.89h1.42Z"/><path class="cls-2" d="M42.89,32.21h3.25c3.62,0,5.86,1.89,5.86,5.89s-2.24,5.97-5.73,5.97h-3.38v-11.86ZM46,42.16c2.21,0,3.59-1.18,3.59-4.07s-1.38-3.99-3.59-3.99h-.74v8.05h.74Z"/><path class="cls-2" d="M54.32,32.21h7.3v1.98h-4.93v3.09h4.21v1.98h-4.21v4.8h-2.37v-11.86Z"/><path class="cls-2" d="M75.96,33.12l-.9.38,1.17.72c-.18.32-.38.75-.53,1.15-.42,1.3-1.22,3.01-2.37,4.61.69.5,1.31.96,1.79,1.34l-1.54,1.81c-.43-.4-1.02-.9-1.68-1.42-1.41,1.49-3.22,2.85-5.71,3.79l-1.86-1.62c2.77-.85,4.55-2.14,5.86-3.49-1.04-.75-2.1-1.47-2.91-2l1.42-1.46c.85.48,1.86,1.14,2.88,1.82.82-1.17,1.5-2.54,1.74-3.54h-4.58c-1.12,1.49-2.61,3.02-4.23,4.15l-1.73-1.34c2.8-1.73,4.29-3.92,5.11-5.31.24-.38.58-1.12.72-1.66l2.32.72c-.38.56-.8,1.28-.99,1.63h3.27c.43,0,.9-.05,1.25-.14-.3-.61-.69-1.31-1.04-1.82l1.26-.51c.4.58.98,1.6,1.26,2.19ZM77.88,32.37l-1.27.56c-.34-.67-.85-1.6-1.3-2.21l1.26-.53c.42.61,1.01,1.62,1.3,2.18Z"/><path class="cls-2" d="M87.27,32.46v1.23h2.79c.67,0,1.06-.08,1.33-.18l1.39.85c-.13.35-.26.96-.32,1.28-.27,1.54-.7,3.07-1.49,4.53-1.28,2.37-3.68,4.07-6.53,4.8l-1.67-1.92c.72-.13,1.6-.37,2.26-.62,1.33-.5,2.74-1.44,3.63-2.74.82-1.17,1.23-2.69,1.42-4.11h-7.94v2.34c0,.37.02.86.05,1.18h-2.21c.05-.4.08-.91.08-1.34v-2.77c0-.35-.02-.99-.08-1.38.54.06,1.03.08,1.63.08h3.43v-1.23c0-.45-.02-.78-.13-1.47h2.46c-.08.69-.11,1.02-.11,1.47Z"/><path class="cls-2" d="M102.21,40.47c2.74-1.62,4.82-4.07,5.83-6.23l1.25,2.26c-1.22,2.16-3.34,4.37-5.92,5.92-1.62.98-3.68,1.87-5.94,2.26l-1.34-2.11c2.5-.35,4.58-1.17,6.13-2.1ZM102.21,35.3l-1.63,1.66c-.83-.9-2.83-2.64-4-3.46l1.5-1.6c1.12.75,3.2,2.42,4.13,3.39Z"/><path class="cls-2" d="M113.94,32.75h8.8c.4,0,1.01,0,1.58-.03-.03.48-.03,1.07-.03,1.55v7.84c0,.62.03,2.16.03,2.22h-2.21s.02-.4.02-.86h-7.71c.02.45.02.82.02.86h-2.21c0-.08.05-1.47.05-2.24v-7.83c0-.45,0-1.1-.03-1.55.66.02,1.27.03,1.7.03ZM114.42,41.43h7.73v-6.64h-7.73v6.64Z"/><path class="cls-2" d="M130.27,36.75h8.6c.75,0,1.46-.06,1.87-.1v2.51c-.38-.02-1.2-.08-1.87-.08h-8.6c-.91,0-1.98.03-2.58.08v-2.51c.58.05,1.74.1,2.58.1Z"/><path class="cls-2" d="M146.75,33.57c0-.58-.05-1.36-.16-1.94h2.5c-.06.56-.14,1.26-.14,1.94v2.34c2.13.64,5.22,1.78,6.69,2.5l-.9,2.23c-1.67-.88-4.07-1.81-5.79-2.38v4.53c0,.45.08,1.57.16,2.22h-2.51c.1-.62.16-1.6.16-2.22v-9.2ZM154.6,34.58l-1.39.62c-.46-1.01-.82-1.65-1.41-2.48l1.34-.56c.45.67,1.09,1.7,1.46,2.42ZM156.74,33.65l-1.34.66c-.51-1.01-.9-1.6-1.49-2.4l1.33-.62c.46.64,1.14,1.65,1.5,2.37Z"/></g></svg>