<?xml version="1.0" encoding="UTF-8"?><svg id="_レイヤー_2" xmlns="http://www.w3.org/2000/svg" width="20" height="20" viewBox="0 0 20 20"><defs><style>.cls-1{fill:#fff;stroke-width:0px;}</style></defs><g id="_コンテンツ"><g id="_アートワーク_130"><g id="_アートワーク_130-2"><path class="cls-1" d="M16.89,0H3.11C1.39,0,0,1.39,0,3.11h0s8.56,7.82,8.56,7.82c.41.37.92.56,1.44.56.52,0,1.03-.18,1.44-.56l8.56-7.81h0c0-1.72-1.39-3.12-3.11-3.12Z"/><path class="cls-1" d="M10,13.81c-1.08,0-2.16-.39-3.01-1.17L0,6.27v10.62c0,1.72,1.39,3.11,3.11,3.11h13.79c1.72,0,3.11-1.39,3.11-3.11V6.27l-6.99,6.37c-.85.78-1.93,1.17-3.01,1.17Z"/></g></g></g></svg>