<?xml version="1.0" encoding="UTF-8"?><svg id="_レイヤー_2" xmlns="http://www.w3.org/2000/svg" width="26" height="26" viewBox="0 0 26 26"><defs><style>.cls-1{fill:#fff;stroke-width:0px;}</style></defs><g id="_コンテンツ"><g id="_アートワーク_133"><g id="_アートワーク_133-2"><path class="cls-1" d="M16.06,17.74c-.3-.3-.79-.33-1.12-.06l-1.58,1.28c-.31.25-.76.25-1.07-.01,0,0-1.35-.91-2.83-2.39-1.49-1.48-2.39-2.83-2.39-2.83-.26-.31-.26-.76-.01-1.07l1.27-1.58c.27-.33.24-.82-.06-1.12l-3.03-3.03c-.31-.31-.8-.33-1.14-.05L.3,10.05c-.3.26-.39.69-.2,1.04,0,0,.51,1.04.98,1.84,1.3,2.19,3.42,4.79,5.31,6.67,1.89,1.89,4.48,4,6.67,5.31.8.47,1.84.99,1.84.99.35.19.78.1,1.04-.2l3.19-3.8c.28-.33.26-.83-.05-1.14l-3.03-3.03Z"/><path class="cls-1" d="M16.8,13.68l1.26-.2c-.21-1.34-.84-2.63-1.87-3.67-1.03-1.03-2.33-1.66-3.67-1.87l-.2,1.26c1.09.18,2.13.68,2.97,1.52.84.84,1.34,1.88,1.52,2.97Z"/><path class="cls-1" d="M21.87,4.13C19.59,1.84,16.74.47,13.77,0l-.2,1.26c2.71.43,5.3,1.68,7.39,3.77,2.09,2.09,3.34,4.69,3.77,7.39l1.26-.2c-.47-2.96-1.84-5.81-4.13-8.1Z"/><path class="cls-1" d="M13.15,3.96l-.2,1.26c1.9.3,3.72,1.17,5.18,2.64,1.46,1.46,2.34,3.29,2.64,5.19l1.26-.2c-.34-2.15-1.34-4.23-3-5.89-1.66-1.66-3.74-2.66-5.89-3Z"/></g></g></g></svg>