<?xml version="1.0" encoding="UTF-8"?><svg id="_レイヤー_2" xmlns="http://www.w3.org/2000/svg" width="50" height="50" viewBox="0 0 50 50"><defs><style>.cls-1{fill:#fff;fill-rule:evenodd;}.cls-1,.cls-2{stroke-width:0px;}.cls-2{fill:#46baf9;}</style></defs><g id="_コンテンツ"><circle class="cls-2" cx="25" cy="25" r="25"/><g id="message"><path class="cls-1" d="M20,23.5c-.83,0-1.5.67-1.5,1.5s.67,1.5,1.5,1.5,1.5-.67,1.5-1.5-.67-1.5-1.5-1.5ZM25,23.5c-.83,0-1.5.67-1.5,1.5s.67,1.5,1.5,1.5,1.5-.67,1.5-1.5-.67-1.5-1.5-1.5ZM35.03,30.61c2.45-4.38,1.83-10.02-1.9-13.74-4.49-4.49-11.77-4.49-16.26,0-4.49,4.49-4.49,11.77,0,16.26,3.72,3.72,9.36,4.35,13.74,1.9l5.89,1.47-1.47-5.89ZM33.5,33.5l-2.79-.93c-3.73,2.82-9.05,2.54-12.45-.86-3.72-3.72-3.72-9.74,0-13.46,3.72-3.72,9.74-3.72,13.46,0,3.4,3.4,3.68,8.73.86,12.45l.93,2.79ZM30,23.5c-.83,0-1.5.67-1.5,1.5s.67,1.5,1.5,1.5,1.5-.67,1.5-1.5-.67-1.5-1.5-1.5Z"/></g></g></svg>