<?xml version="1.0" encoding="UTF-8"?><svg id="_レイヤー_2" xmlns="http://www.w3.org/2000/svg" width="170" height="170" viewBox="0 0 170 170"><defs><style>.cls-1{fill:#90e0d5;}.cls-1,.cls-2,.cls-3{stroke-width:0px;}.cls-2{fill:#00b59f;}.cls-3{fill:#fff;}</style></defs><g id="_コンテンツ"><circle class="cls-1" cx="85" cy="85" r="85"/><circle class="cls-2" cx="85" cy="85" r="76.05"/><path class="cls-3" d="M115.34,91.32l-4.74-2.04v-18.17c0-.86-.18-1.69-.49-2.45-.48-1.13-1.27-2.09-2.27-2.76-1-.68-2.22-1.08-3.51-1.07h-9.66v-12.47c0-.54-.11-1.07-.31-1.54-.3-.71-.8-1.31-1.43-1.74-.63-.43-1.4-.68-2.21-.68h-10.93c-.54,0-1.07.11-1.54.31-.71.3-1.31.8-1.74,1.43-.43.63-.68,1.4-.68,2.21v12.47h-9.66c-.86,0-1.69.18-2.45.5-1.13.48-2.08,1.27-2.76,2.27-.68,1-1.07,2.22-1.07,3.51v18.17l-4.74,2.04c-2.35,1.01-3.49,3.69-2.59,6.09l9.99,24.19h45.41l9.99-24.19c.9-2.4-.24-5.08-2.59-6.09ZM80.17,56.13h10.14v4.35h-10.14v-4.35h0ZM106.26,87.41l-18.31-7.88c-1.73-.74-3.69-.74-5.42,0l-18.3,7.88v-16.29c0-.27.05-.52.15-.75.15-.34.39-.64.7-.85.31-.21.67-.33,1.08-.33h38.16c.27,0,.52.05.75.15.35.15.65.39.86.7.21.31.33.67.33,1.08v16.29h0Z"/><rect class="cls-3" x="70.51" y="72.8" width="6.76" height="6.76"/><rect class="cls-3" x="93.21" y="72.8" width="6.76" height="6.76"/></g></svg>