<?xml version="1.0" encoding="UTF-8"?><svg id="_レイヤー_2" xmlns="http://www.w3.org/2000/svg" width="52" height="40" viewBox="0 0 52 40"><defs><style>.cls-1{fill:#78c4ea;stroke-width:0px;}</style></defs><g id="_コンテンツ"><path class="cls-1" d="M50.53,0h-24.94c-.81,0-1.47.66-1.47,1.48v23.19c0,.82.66,1.48,1.47,1.48h24.94c.81,0,1.47-.66,1.47-1.48V1.48c0-.82-.66-1.48-1.47-1.48Z"/><path class="cls-1" d="M11.85,30.06c-2.73,0-4.94,2.23-4.94,4.97s2.21,4.97,4.94,4.97,4.94-2.23,4.94-4.97c0-2.74-2.21-4.97-4.94-4.97ZM11.85,37.27c-1.23,0-2.22-1-2.22-2.24s.99-2.24,2.22-2.24,2.22,1,2.22,2.24-.99,2.24-2.22,2.24Z"/><path class="cls-1" d="M41.01,30.06c-2.73,0-4.94,2.23-4.94,4.97s2.21,4.97,4.94,4.97,4.94-2.23,4.94-4.97c0-2.74-2.21-4.97-4.94-4.97ZM41.01,37.27c-1.23,0-2.22-1-2.22-2.24s.99-2.24,2.22-2.24,2.22,1,2.22,2.24-.99,2.24-2.22,2.24Z"/><path class="cls-1" d="M20.32,6.97h-11.13c-.36,0-.71.16-.94.44L.28,17.05c-.18.22-.28.5-.28.79v12.86c0,.68.55,1.23,1.22,1.23h3.74c1.18-2.65,3.82-4.5,6.89-4.5s5.71,1.85,6.89,4.5h2.81V8.2c0-.68-.55-1.23-1.22-1.23ZM4.46,17.96c0-.29.1-.57.28-.8l5.09-6.31c.24-.3.6-.47.98-.47h4.98c.7,0,1.26.57,1.26,1.27v7.16c0,.7-.56,1.27-1.26,1.27H5.72c-.69,0-1.26-.57-1.26-1.27v-.85Z"/><path class="cls-1" d="M24.73,28.47c-.38,0-.69.31-.69.69v2.08c0,.38.31.69.69.69h9.39c.65-1.45,1.73-2.66,3.09-3.46h-12.48Z"/><path class="cls-1" d="M51.23,28.47h-6.42c1.36.8,2.44,2.01,3.09,3.46h3.33c.38,0,.69-.31.69-.69v-2.08c0-.38-.31-.69-.69-.69Z"/></g></svg>