<?xml version="1.0" encoding="UTF-8"?><svg id="_レイヤー_2" xmlns="http://www.w3.org/2000/svg" width="156" height="108" viewBox="0 0 156 108"><defs><style>.cls-1{fill:#e9f8ff;stroke-width:0px;}</style></defs><g id="_コンテンツ"><path class="cls-1" d="M73.09,54.11c-.21,18.32-3.35,31.89-9.43,40.69-6.08,8.8-15.34,13.2-27.79,13.2s-21.1-4.54-27.12-13.63C2.72,85.28-.19,71.86,0,54.11.22,35.59,3.35,21.95,9.41,13.17,15.47,4.39,24.69,0,37.09,0s21.12,4.59,27.19,13.78c6.07,9.19,9,22.63,8.8,40.33ZM21.96,54.11c-.15,12.87.86,22.09,3.01,27.66,2.15,5.57,5.85,8.36,11.1,8.36s8.9-2.82,11.25-8.47c2.35-5.64,3.6-14.83,3.74-27.56.15-12.87-.91-22.11-3.15-27.74-2.25-5.62-5.92-8.43-11.02-8.43s-8.95,2.81-11.25,8.43c-2.3,5.62-3.53,14.87-3.67,27.74Z"/><path class="cls-1" d="M153.5,25.12c-.07,6.55-2.12,12.13-6.12,16.72-4.01,4.59-9.6,7.75-16.77,9.47v.43c8.42,1.05,14.78,3.62,19.07,7.71,4.29,4.09,6.4,9.61,6.32,16.54-.11,10.1-3.85,17.95-11.21,23.57-7.36,5.62-17.8,8.43-31.34,8.43-11.35,0-21.38-1.89-30.11-5.67l.21-18.87c4.03,2.06,8.47,3.73,13.32,5.02,4.85,1.29,9.65,1.94,14.42,1.94,7.29,0,12.69-1.24,16.2-3.73,3.51-2.49,5.29-6.48,5.36-11.99.06-4.93-1.91-8.42-5.89-10.48-3.98-2.06-10.36-3.09-19.13-3.09h-7.94l.19-17.01h8.08c8.1,0,14.04-1.06,17.8-3.19,3.77-2.13,5.68-5.78,5.74-10.94.09-7.94-4.82-11.91-14.74-11.91-3.43,0-6.93.57-10.49,1.72-3.56,1.15-7.53,3.13-11.9,5.96l-10.05-15.29C94.13,3.59,105.54.14,118.74.14c10.82,0,19.34,2.2,25.56,6.6,6.22,4.4,9.28,10.53,9.2,18.37Z"/></g></svg>